<svg width="19" height="19" viewBox="0 0 19 19" fill="none" xmlns="http://www.w3.org/2000/svg">
<path d="M17.6981 12.6995L13.2713 10.7185C13.0996 10.6443 12.9122 10.6139 12.726 10.6303C12.5397 10.6467 12.3604 10.7092 12.2044 10.8123C12.1919 10.8202 12.18 10.829 12.1688 10.8385L9.84376 12.8204C9.79202 12.852 9.7333 12.8703 9.67279 12.8737C9.61228 12.8771 9.55186 12.8656 9.49689 12.8401C7.97439 12.1051 6.39845 10.5413 5.66345 9.03666C5.63745 8.9821 5.62538 8.92194 5.62832 8.86157C5.63127 8.8012 5.64914 8.7425 5.68032 8.69073L7.66782 6.32729C7.6772 6.31604 7.68564 6.30385 7.69407 6.29166C7.79681 6.13585 7.85918 5.95693 7.87554 5.77101C7.89191 5.58509 7.86176 5.39803 7.78782 5.22666L5.80314 0.807287C5.70732 0.583455 5.54148 0.396749 5.33051 0.275205C5.11954 0.153661 4.87483 0.10384 4.63314 0.133224C3.45336 0.288774 2.37054 0.868471 1.58694 1.76404C0.803343 2.65961 0.372544 3.8098 0.375011 4.99979C0.375011 12.2373 6.26251 18.1248 13.5 18.1248C14.69 18.1273 15.8402 17.6965 16.7358 16.9129C17.6313 16.1293 18.211 15.0464 18.3666 13.8667C18.3957 13.6261 18.3464 13.3825 18.226 13.1722C18.1056 12.9619 17.9204 12.7961 17.6981 12.6995ZM17.625 13.7729C17.4926 14.772 17.0009 15.6888 16.2417 16.3517C15.4825 17.0146 14.5079 17.3783 13.5 17.3748C6.67689 17.3748 1.12501 11.8229 1.12501 4.99979C1.12152 3.99192 1.48523 3.01729 2.14813 2.25811C2.81103 1.49893 3.72775 1.00717 4.72689 0.874787C4.74187 0.873856 4.7569 0.873856 4.77189 0.874787C4.84587 0.875418 4.91801 0.897918 4.97923 0.939456C5.04045 0.980994 5.08802 1.03971 5.11595 1.10822L7.09501 5.5276C7.1181 5.58161 7.12818 5.6403 7.12444 5.69892C7.12069 5.75754 7.10322 5.81446 7.07345 5.8651L5.08689 8.2276C5.07751 8.23979 5.06814 8.25104 5.0597 8.26416C4.95386 8.42601 4.89153 8.6124 4.87872 8.80536C4.86591 8.99831 4.90306 9.19131 4.98657 9.36573C5.80126 11.0335 7.48126 12.7014 9.16782 13.516C9.34343 13.599 9.53753 13.6351 9.73122 13.6208C9.92492 13.6065 10.1116 13.5423 10.2731 13.4345L10.3078 13.4082L12.6356 11.4282C12.6854 11.3978 12.7417 11.3796 12.7999 11.3752C12.8581 11.3708 12.9165 11.3803 12.9703 11.4029L17.3963 13.3867C17.471 13.4178 17.5336 13.4722 17.5748 13.5418C17.616 13.6114 17.6336 13.6925 17.625 13.7729Z" fill="#FBFADD"/>
</svg>
