<svg width="18" height="18" viewBox="0 0 18 18" fill="none" xmlns="http://www.w3.org/2000/svg">
<path d="M9.11365 3.58864C9.11365 3.43252 9.05499 3.2828 8.95056 3.17241C8.84614 3.06202 8.70451 3 8.55683 3C8.40915 3 8.26752 3.06202 8.16309 3.17241C8.05867 3.2828 8 3.43252 8 3.58864V10.0637C8.00003 10.1675 8.02601 10.2694 8.07529 10.3591C8.12457 10.4488 8.19542 10.5232 8.28064 10.5746L12.1784 12.9292C12.3063 13.0023 12.4562 13.0196 12.596 12.9774C12.7358 12.9352 12.8545 12.8369 12.9266 12.7034C12.9988 12.57 13.0187 12.412 12.9821 12.2632C12.9455 12.1144 12.8553 11.9867 12.7308 11.9073L9.11365 9.72229V3.58864Z" fill="#FBFADD"/>
<path d="M9 18C11.3869 18 13.6761 17.0518 15.364 15.364C17.0518 13.6761 18 11.3869 18 9C18 6.61305 17.0518 4.32387 15.364 2.63604C13.6761 0.948212 11.3869 0 9 0C6.61305 0 4.32387 0.948212 2.63604 2.63604C0.948212 4.32387 0 6.61305 0 9C0 11.3869 0.948212 13.6761 2.63604 15.364C4.32387 17.0518 6.61305 18 9 18ZM16.875 9C16.875 11.0886 16.0453 13.0916 14.5685 14.5685C13.0916 16.0453 11.0886 16.875 9 16.875C6.91142 16.875 4.90838 16.0453 3.43153 14.5685C1.95468 13.0916 1.125 11.0886 1.125 9C1.125 6.91142 1.95468 4.90838 3.43153 3.43153C4.90838 1.95468 6.91142 1.125 9 1.125C11.0886 1.125 13.0916 1.95468 14.5685 3.43153C16.0453 4.90838 16.875 6.91142 16.875 9Z" fill="#FBFADD"/>
</svg>
