<svg width="159" height="58" viewBox="0 0 159 58" fill="none" xmlns="http://www.w3.org/2000/svg">
<path d="M81.72 15.88H78.08V17.58H80.84V20.46H78.08V25H73.8V12.58H82L81.72 15.88ZM86.8886 20.6C86.8886 21.32 87.2086 21.68 87.8486 21.68C88.5019 21.68 88.8286 21.3133 88.8286 20.58V12.58H93.1086V20.84C93.1086 22.3067 92.6486 23.4 91.7286 24.12C90.8086 24.84 89.4886 25.2 87.7686 25.2C84.2753 25.2 82.5286 23.76 82.5286 20.88V12.58H86.8886V20.6ZM86.0486 12.12C85.0753 12.12 84.5886 11.7067 84.5886 10.88C84.5886 10.04 85.0753 9.62 86.0486 9.62C87.0353 9.62 87.5286 10.04 87.5286 10.88C87.5286 11.7067 87.0353 12.12 86.0486 12.12ZM89.5886 12.12C88.6153 12.12 88.1286 11.7067 88.1286 10.88C88.1286 10.04 88.6153 9.62 89.5886 9.62C90.5753 9.62 91.0686 10.04 91.0686 10.88C91.0686 11.7067 90.5753 12.12 89.5886 12.12ZM100.1 21.94C100.34 21.94 100.66 21.9 101.06 21.82V20.62H100.06V17.86H104.78V25H101.76L101.46 24.36H101.38C100.687 24.92 99.867 25.2 98.9203 25.2C95.8003 25.2 94.2403 23.0933 94.2403 18.88C94.2403 16.7733 94.6603 15.1667 95.5003 14.06C96.3536 12.94 97.787 12.38 99.8003 12.38C101.294 12.38 102.707 12.5867 104.04 13L103.38 16.76C101.887 16.3467 100.814 16.14 100.16 16.14C99.5203 16.14 99.0936 16.3533 98.8803 16.78C98.6803 17.2067 98.5803 17.9333 98.5803 18.96C98.5803 19.9867 98.6736 20.74 98.8603 21.22C99.0603 21.7 99.4736 21.94 100.1 21.94ZM111.936 21.94C112.176 21.94 112.496 21.9 112.896 21.82V20.62H111.896V17.86H116.616V25H113.596L113.296 24.36H113.216C112.523 24.92 111.703 25.2 110.756 25.2C107.636 25.2 106.076 23.0933 106.076 18.88C106.076 16.7733 106.496 15.1667 107.336 14.06C108.19 12.94 109.623 12.38 111.636 12.38C113.13 12.38 114.543 12.5867 115.876 13L115.216 16.76C113.723 16.3467 112.65 16.14 111.996 16.14C111.356 16.14 110.93 16.3533 110.716 16.78C110.516 17.2067 110.416 17.9333 110.416 18.96C110.416 19.9867 110.51 20.74 110.696 21.22C110.896 21.7 111.31 21.94 111.936 21.94ZM117.892 18.72C117.892 16.4933 118.332 14.88 119.212 13.88C120.106 12.88 121.566 12.38 123.592 12.38C125.632 12.38 127.086 12.8733 127.952 13.86C128.832 14.8467 129.272 16.4533 129.272 18.68C129.272 20.8933 128.819 22.5333 127.912 23.6C127.019 24.6667 125.566 25.2 123.552 25.2C121.552 25.2 120.106 24.6733 119.212 23.62C118.332 22.5667 117.892 20.9333 117.892 18.72ZM124.712 16.34C124.539 15.9933 124.166 15.82 123.592 15.82C123.019 15.82 122.652 15.9867 122.492 16.32C122.332 16.6533 122.252 17.3667 122.252 18.46V19.34C122.252 20.46 122.339 21.1867 122.512 21.52C122.686 21.8533 123.066 22.02 123.652 22.02C124.239 22.02 124.606 21.86 124.752 21.54C124.899 21.22 124.972 20.5067 124.972 19.4V18.48C124.972 17.3867 124.886 16.6733 124.712 16.34ZM121.772 12.12C120.799 12.12 120.312 11.7067 120.312 10.88C120.312 10.04 120.799 9.62 121.772 9.62C122.759 9.62 123.252 10.04 123.252 10.88C123.252 11.7067 122.759 12.12 121.772 12.12ZM125.312 12.12C124.339 12.12 123.852 11.7067 123.852 10.88C123.852 10.04 124.339 9.62 125.312 9.62C126.299 9.62 126.792 10.04 126.792 10.88C126.792 11.7067 126.299 12.12 125.312 12.12ZM141.02 25H136.94L134.42 20.1H134.28V25H130.48V12.58H134.7L137.06 17.64H137.18V12.58H141.02V25ZM152.548 12.58L149.268 21.06V25H145.008V21.04L141.828 12.58H146.328L147.208 17.14H147.328L148.168 12.58H152.548ZM73.4 40.72C73.4 38.4933 73.84 36.88 74.72 35.88C75.6133 34.88 77.0733 34.38 79.1 34.38C81.14 34.38 82.5933 34.8733 83.46 35.86C84.34 36.8467 84.78 38.4533 84.78 40.68C84.78 42.8933 84.3267 44.5333 83.42 45.6C82.5267 46.6667 81.0733 47.2 79.06 47.2C77.06 47.2 75.6133 46.6733 74.72 45.62C73.84 44.5667 73.4 42.9333 73.4 40.72ZM80.22 38.34C80.0467 37.9933 79.6733 37.82 79.1 37.82C78.5267 37.82 78.16 37.9867 78 38.32C77.84 38.6533 77.76 39.3667 77.76 40.46V41.34C77.76 42.46 77.8467 43.1867 78.02 43.52C78.1933 43.8533 78.5733 44.02 79.16 44.02C79.7467 44.02 80.1133 43.86 80.26 43.54C80.4067 43.22 80.48 42.5067 80.48 41.4V40.48C80.48 39.3867 80.3933 38.6733 80.22 38.34ZM96.4475 47H92.2475L91.8475 45.08H89.6275L89.2075 47H85.1875L87.7675 34.58H93.8675L96.4475 47ZM91.5475 42.5L90.7875 38.34H90.7075L89.9275 42.5H91.5475ZM94.1675 31.3L91.5275 33.78H88.8875L90.1075 31.3H94.1675ZM106.757 47H97.357L97.217 44.86L101.057 38H96.917L96.697 34.58H106.437L106.577 36.68L102.977 43.82H106.757V47ZM112.144 47H107.924V34.58H112.144V47ZM113.259 38.56C113.259 37.24 113.659 36.2133 114.459 35.48C115.259 34.7467 116.365 34.38 117.779 34.38C119.205 34.38 120.672 34.5133 122.179 34.78L121.719 38.3C120.052 37.9667 118.959 37.8 118.439 37.8C117.919 37.8 117.659 37.96 117.659 38.28C117.659 38.4 117.699 38.4867 117.779 38.54C117.859 38.58 117.919 38.6133 117.959 38.64C117.999 38.6667 118.072 38.7 118.179 38.74C118.299 38.78 118.392 38.82 118.459 38.86C118.539 38.8867 118.779 38.9867 119.179 39.16C119.592 39.32 119.899 39.4533 120.099 39.56C120.312 39.6533 120.599 39.8133 120.959 40.04C121.999 40.72 122.519 41.72 122.519 43.04C122.519 44.36 122.125 45.3867 121.339 46.12C120.552 46.84 119.419 47.2 117.939 47.2C116.472 47.2 115.032 47.02 113.619 46.66L113.899 43.28C115.685 43.7333 116.892 43.96 117.519 43.96C117.932 43.96 118.139 43.8133 118.139 43.52C118.139 43.3867 118.085 43.28 117.979 43.2C117.885 43.12 117.739 43.0333 117.539 42.94C117.352 42.8467 117.072 42.7267 116.699 42.58C116.325 42.42 116.012 42.2867 115.759 42.18C115.505 42.06 115.205 41.88 114.859 41.64C113.792 40.9067 113.259 39.88 113.259 38.56Z" fill="#FBFADD"/>
<path d="M55.5833 8.25001H2.41667V3.41667H55.5833V8.25001ZM4.83334 54.1667H14.5C14.5 46.9167 9.66667 42.0833 9.66667 42.0833C24.1667 32.4167 26.5833 10.6667 26.5833 10.6667H4.83334V54.1667ZM53.1667 10.6667H31.4167C31.4167 10.6667 33.8333 32.4167 48.3333 42.0833C48.3333 42.0833 43.5 46.9167 43.5 54.1667H53.1667V10.6667Z" fill="#FBFADD"/>
</svg>
