<svg width="80" height="79" viewBox="0 0 80 79" fill="none" xmlns="http://www.w3.org/2000/svg">
<path d="M59.8841 38.3028H60.2379C60.3453 38.3046 60.452 38.285 60.5517 38.2452C60.6515 38.2054 60.7423 38.1461 60.8189 38.0708C60.8955 37.9955 60.9563 37.9057 60.9978 37.8066C61.0393 37.7076 61.0607 37.6013 61.0607 37.4939C61.0607 37.3865 61.0393 37.2801 60.9978 37.1811C60.9563 37.082 60.8955 36.9923 60.8189 36.917C60.7423 36.8417 60.6515 36.7824 60.5517 36.7425C60.452 36.7027 60.3453 36.6831 60.2379 36.6849H59.8834C59.776 36.6831 59.6693 36.7027 59.5696 36.7425C59.4698 36.7824 59.379 36.8417 59.3024 36.917C59.2259 36.9923 59.165 37.082 59.1235 37.1811C59.082 37.2801 59.0606 37.3865 59.0606 37.4939C59.0606 37.6013 59.082 37.7076 59.1235 37.8066C59.165 37.9057 59.2259 37.9955 59.3024 38.0708C59.379 38.1461 59.4698 38.2054 59.5696 38.2452C59.6693 38.285 59.776 38.3046 59.8834 38.3028H59.8841Z" fill="white"/>
<path d="M5.90383 38.3028H6.07485C8.23573 41.1466 9.68445 44.6161 10.3778 48.6181C11.2747 53.7961 14.012 56.6362 16.6353 58.1911C16.2923 59.822 15.8739 62.441 16.0479 64.9293C16.0622 65.1336 16.1535 65.3249 16.3033 65.4646C16.4531 65.6043 16.6503 65.6819 16.8551 65.6819H18.7125C19.336 65.6855 19.9461 65.5015 20.4637 65.1538C20.9813 64.8062 21.3823 64.311 21.6148 63.7325C22.0919 62.5475 23.0036 60.9933 24.6385 60.3213C24.6678 60.3076 24.6963 60.2921 24.7237 60.2748H55.3339C55.3856 60.3172 55.4424 60.353 55.5028 60.3815C57.0538 61.085 57.9263 62.5916 58.3852 63.7315C58.6177 64.31 59.0188 64.8053 59.5363 65.1529C60.0539 65.5005 60.664 65.6845 61.2875 65.681H63.1463C63.3511 65.6811 63.5483 65.6034 63.6981 65.4637C63.8479 65.324 63.9391 65.1327 63.9533 64.9284C64.1296 62.4092 63.6905 59.7367 63.3659 58.1902C65.9891 56.6348 68.7265 53.7947 69.6236 48.6172C70.3169 44.614 71.7657 41.1452 73.927 38.3019H74.0973C74.486 38.3054 74.8714 38.2318 75.2315 38.0855C75.5915 37.9391 75.919 37.7229 76.1951 37.4493C76.4711 37.1757 76.6902 36.8502 76.8397 36.4914C76.9893 36.1327 77.0662 35.7479 77.0662 35.3593C77.0662 34.9706 76.9893 34.5858 76.8397 34.2271C76.6902 33.8684 76.4711 33.5428 76.1951 33.2692C75.919 32.9956 75.5915 32.7794 75.2315 32.6331C74.8714 32.4867 74.486 32.4132 74.0973 32.4166H48.1449C48.5429 31.6148 49.2428 30.5787 50.3523 30.0892C51.3107 29.667 52.4534 29.7271 53.7493 30.2692C53.8493 30.3098 53.9564 30.3301 54.0644 30.3291C54.1723 30.328 54.279 30.3056 54.3783 30.2631C54.4775 30.2206 54.5674 30.1588 54.6426 30.0814C54.7179 30.004 54.777 29.9124 54.8167 29.812C54.8813 29.6493 55.5061 28.2278 57.5394 28.5266C57.7255 28.5538 57.9154 28.5154 58.0762 28.4178C58.2371 28.3203 58.359 28.1698 58.4209 27.9922C58.8831 26.8783 59.7153 25.958 60.7772 25.3866C61.4657 25.0241 62.2286 24.8255 63.0064 24.8061C63.7843 24.7868 64.556 24.9474 65.2617 25.2753C65.9853 25.5982 66.6245 26.0838 67.1296 26.6944C67.6347 27.3049 67.9919 28.0239 68.1735 28.7952C68.2659 29.1948 68.3273 29.6009 68.3571 30.0099C68.3749 30.2225 68.4761 30.4195 68.6385 30.5579C68.8009 30.6963 69.0114 30.7649 69.2241 30.7489C69.4369 30.7328 69.6347 30.6334 69.7745 30.4722C69.9143 30.311 69.9847 30.1011 69.9705 29.8882C69.9345 29.3952 69.8603 28.9058 69.7486 28.4243C69.5114 27.4117 69.0435 26.4676 68.3814 25.6656C67.7193 24.8635 66.8809 24.2253 65.9315 23.8005C65.0009 23.3695 63.9834 23.1591 62.9581 23.1857C61.9329 23.2124 60.9276 23.4755 60.0207 23.9543C58.7957 24.616 57.7982 25.631 57.1581 26.8673C56.4872 26.8253 55.8167 26.9551 55.2099 27.2443C54.6032 27.5336 54.0802 27.9729 53.6905 28.5205C52.2348 28.051 50.895 28.0791 49.6993 28.606C47.7499 29.4657 46.7666 31.4147 46.3753 32.4141H21.7275V30.1421C21.7248 29.2658 21.4544 28.4112 20.9523 27.6928C20.4503 26.9745 19.7407 26.4268 18.9186 26.1231C18.8189 26.0865 18.7129 26.0699 18.6067 26.0742C18.5006 26.0786 18.3963 26.1038 18.2999 26.1484C18.2034 26.1931 18.1168 26.2563 18.0448 26.3344C17.9728 26.4126 17.9169 26.5041 17.8802 26.6039C17.8436 26.7036 17.827 26.8096 17.8314 26.9158C17.8357 27.0219 17.8609 27.1262 17.9055 27.2226C17.9502 27.319 18.0134 27.4057 18.0915 27.4777C18.1697 27.5497 18.2612 27.6056 18.361 27.6422C18.8732 27.8311 19.3154 28.1722 19.6282 28.6197C19.9409 29.0672 20.1093 29.5997 20.1106 30.1456V32.4176H16.5812V20.9456C16.5863 20.5157 16.7607 20.1051 17.0665 19.8029C17.3723 19.5007 17.785 19.3312 18.2149 19.3312C18.6449 19.3312 19.0575 19.5007 19.3634 19.8029C19.6692 20.1051 19.8436 20.5157 19.8487 20.9456C19.8493 21.7373 20.1639 22.4964 20.7236 23.0564C21.2833 23.6163 22.0423 23.9313 22.834 23.9323H25.3C25.5145 23.9323 25.7202 23.8471 25.872 23.6954C26.0237 23.5437 26.109 23.338 26.109 23.1234V21.1905C26.109 20.1568 25.9054 19.1332 25.5098 18.1781C25.1142 17.2231 24.5344 16.3554 23.8035 15.6244C23.0725 14.8935 22.2047 14.3136 21.2497 13.918C20.2947 13.5225 19.2711 13.3188 18.2374 13.3188C17.2036 13.3188 16.18 13.5225 15.225 13.918C14.27 14.3136 13.4022 14.8935 12.6713 15.6244C11.9403 16.3554 11.3605 17.2231 10.9649 18.1781C10.5693 19.1332 10.3657 20.1568 10.3657 21.1905V26.1164C9.53479 26.4136 8.81585 26.9601 8.30705 27.6811C7.79826 28.4022 7.5244 29.2627 7.52287 30.1452V32.4171H5.90383C5.5152 32.4136 5.12974 32.4872 4.76969 32.6335C4.40964 32.7799 4.08215 32.9961 3.80611 33.2697C3.53008 33.5433 3.31097 33.8688 3.16145 34.2276C3.01192 34.5863 2.93494 34.9711 2.93494 35.3597C2.93494 35.7484 3.01192 36.1332 3.16145 36.4919C3.31097 36.8506 3.53008 37.1762 3.80611 37.4498C4.08215 37.7234 4.40964 37.9396 4.76969 38.0859C5.12974 38.2323 5.5152 38.3058 5.90383 38.3024V38.3028ZM20.1138 63.1283C20.0009 63.4068 19.807 63.6448 19.5571 63.8116C19.3072 63.9785 19.013 64.0663 18.7125 64.0638H17.6284C17.6194 62.349 17.7879 60.6378 18.1309 58.9576C18.1974 58.9867 18.2641 59.0159 18.3296 59.0436C19.5371 59.5449 20.8011 59.8976 22.0937 60.0938C21.2285 60.9555 20.554 61.9893 20.1138 63.1283ZM62.3714 64.0638H61.2875C60.9871 64.0663 60.6928 63.9785 60.4429 63.8116C60.193 63.6448 59.9991 63.4068 59.8862 63.1283C59.4454 61.9893 58.7704 60.9555 57.9049 60.0938C59.198 59.8976 60.4624 59.5449 61.6704 59.0436C61.7359 59.0159 61.8026 58.9867 61.8688 58.9576C62.2103 60.638 62.3787 62.349 62.3714 64.0638ZM18.2374 14.936C19.8955 14.9379 21.4852 15.5975 22.6576 16.7701C23.83 17.9426 24.4894 19.5324 24.4911 21.1905V22.3137H22.834C22.4715 22.3132 22.1239 22.1689 21.8676 21.9126C21.6113 21.6562 21.4672 21.3086 21.4668 20.9461C21.4453 20.0979 21.0933 19.2917 20.4858 18.6994C19.8783 18.1071 19.0634 17.7756 18.2149 17.7756C17.3665 17.7756 16.5516 18.1071 15.9441 18.6994C15.3366 19.2917 14.9846 20.0979 14.963 20.9461V26.7988C14.2069 26.1926 13.2667 25.8623 12.2975 25.8624H11.9836V21.1905C11.9853 19.5324 12.6447 17.9426 13.8171 16.7701C14.9895 15.5975 16.5792 14.9379 18.2374 14.936ZM9.14074 30.1456C9.14154 29.4389 9.42267 28.7613 9.92243 28.2616C10.4222 27.7619 11.0998 27.4808 11.8065 27.4801H12.2975C13.0042 27.4809 13.6817 27.762 14.1814 28.2617C14.6812 28.7614 14.9622 29.4389 14.963 30.1456V32.4176H9.14074V30.1456ZM5.90383 34.0354H74.0962C74.4474 34.0354 74.7843 34.175 75.0327 34.4233C75.281 34.6717 75.4206 35.0086 75.4206 35.3598C75.4206 35.7111 75.281 36.048 75.0327 36.2963C74.7843 36.5447 74.4474 36.6843 74.0962 36.6843H64.4108C64.3034 36.6824 64.1967 36.702 64.097 36.7419C63.9972 36.7817 63.9064 36.841 63.8298 36.9163C63.7533 36.9916 63.6924 37.0814 63.6509 37.1804C63.6094 37.2795 63.588 37.3858 63.588 37.4932C63.588 37.6006 63.6094 37.7069 63.6509 37.806C63.6924 37.905 63.7533 37.9948 63.8298 38.0701C63.9064 38.1454 63.9972 38.2047 64.097 38.2445C64.1967 38.2844 64.3034 38.304 64.4108 38.3021H71.9341C70.0016 41.1564 68.6891 44.5259 68.028 48.3412C66.1794 59.0129 55.862 58.676 55.4259 58.6576C55.4131 58.6576 55.4004 58.6576 55.3876 58.6576H24.6127C24.5996 58.6576 24.5869 58.6576 24.5741 58.6576C22.6462 58.667 20.736 58.2907 18.9558 57.5507C15.0987 55.9324 12.7501 52.834 11.972 48.3412C11.3112 44.5264 9.99696 41.1568 8.06472 38.3021H55.7744C55.8818 38.304 55.9885 38.2844 56.0882 38.2445C56.188 38.2047 56.2788 38.1454 56.3554 38.0701C56.432 37.9948 56.4928 37.905 56.5343 37.806C56.5758 37.7069 56.5972 37.6006 56.5972 37.4932C56.5972 37.3858 56.5758 37.2795 56.5343 37.1804C56.4928 37.0814 56.432 36.9916 56.3554 36.9163C56.2788 36.841 56.188 36.7817 56.0882 36.7419C55.9885 36.702 55.8818 36.6824 55.7744 36.6843H5.90383C5.55258 36.6843 5.21571 36.5447 4.96733 36.2963C4.71896 36.048 4.57942 35.7111 4.57942 35.3598C4.57942 35.0086 4.71896 34.6717 4.96733 34.4233C5.21571 34.175 5.55258 34.0354 5.90383 34.0354Z" fill="white"/>
<path d="M48.5617 21.5583C48.5618 22.2009 48.7524 22.8289 49.1094 23.3632C49.4664 23.8974 49.9738 24.3138 50.5674 24.5596C51.161 24.8055 51.8143 24.8698 52.4444 24.7444C53.0746 24.619 53.6535 24.3096 54.1078 23.8552C54.5621 23.4009 54.8715 22.822 54.9968 22.1918C55.1222 21.5616 55.0578 20.9084 54.8119 20.3148C54.566 19.7212 54.1496 19.2138 53.6154 18.8568C53.0811 18.4999 52.453 18.3093 51.8105 18.3093C50.9492 18.3104 50.1234 18.6531 49.5144 19.2622C48.9054 19.8712 48.5628 20.697 48.5617 21.5583ZM53.4411 21.5583C53.4411 21.8808 53.3455 22.1961 53.1663 22.4643C52.9871 22.7324 52.7324 22.9415 52.4345 23.0649C52.1365 23.1883 51.8086 23.2206 51.4923 23.1576C51.176 23.0947 50.8854 22.9394 50.6574 22.7113C50.4293 22.4832 50.274 22.1926 50.2111 21.8763C50.1483 21.56 50.1806 21.2321 50.304 20.9341C50.4275 20.6362 50.6365 20.3815 50.9047 20.2024C51.1729 20.0232 51.4882 19.9276 51.8107 19.9277C52.243 19.9282 52.6574 20.1002 52.963 20.4059C53.2686 20.7116 53.4405 21.1261 53.4409 21.5583H53.4411Z" fill="white"/>
</svg>
