<svg width="80" height="79" viewBox="0 0 80 79" fill="none" xmlns="http://www.w3.org/2000/svg">
<path d="M4.19191 57.6374L4.18865 57.6404C3.70189 58.2414 3.26266 58.8795 2.87493 59.5487C2.50471 60.1865 2.33373 60.9204 2.38395 61.6562C2.43418 62.3919 2.70332 63.0958 3.15677 63.6774C3.48268 64.084 3.89722 64.4108 4.36873 64.6328C3.95471 65.2439 3.7338 65.9654 3.73464 66.7035V68.2677C3.73438 69.1555 4.05294 70.0139 4.63233 70.6865C5.21172 71.3592 6.0134 71.8014 6.89142 71.9327C7.76945 72.064 8.66542 71.8756 9.41623 71.4019C10.167 70.9281 10.7227 70.2005 10.9822 69.3514C13.0476 69.7554 15.1717 69.7554 17.2371 69.3514C17.4966 70.2005 18.0523 70.9281 18.8031 71.4019C19.5539 71.8756 20.4499 72.064 21.3279 71.9327C22.2059 71.8014 23.0076 71.3592 23.587 70.6865C24.1664 70.0139 24.4849 69.1555 24.4847 68.2677V66.7035C24.4855 65.9654 24.2646 65.2439 23.8506 64.6328C24.3221 64.4109 24.7367 64.0841 25.0625 63.6774C25.5159 63.0958 25.785 62.3919 25.8353 61.6562C25.8855 60.9204 25.7145 60.1865 25.3444 59.5487C24.9566 58.8795 24.5173 58.2415 24.0307 57.6404L24.0281 57.6378C22.853 56.1763 21.4127 54.9496 19.7828 54.0222C21.515 52.6978 22.607 50.7811 22.607 48.6502C22.6067 48.3996 22.5912 48.1493 22.5606 47.9006C23.7649 47.853 24.7254 47.3583 25.3167 46.4482C25.5875 46.0141 25.7548 45.5235 25.8059 45.0145C25.857 44.5054 25.7904 43.9914 25.6114 43.5122C25.0998 42.077 24.1047 40.8647 22.7969 40.0831C22.3836 39.8343 21.9226 39.6753 21.4438 39.6166C20.9651 39.5579 20.4793 39.6007 20.0182 39.7422C19.5676 39.8799 19.151 40.111 18.7958 40.4205C18.4405 40.73 18.1544 41.1109 17.9563 41.5383C17.8703 41.727 17.7948 41.9203 17.7302 42.1173C15.4036 41.1968 12.8137 41.1968 10.487 42.1173C10.4226 41.9203 10.3474 41.7269 10.2617 41.5381C10.0635 41.1106 9.77744 40.7297 9.42216 40.4203C9.06689 40.1108 8.65037 39.8797 8.19976 39.742C7.73864 39.6004 7.25286 39.5576 6.77409 39.6164C6.29532 39.6751 5.83429 39.834 5.42105 40.0829C4.11344 40.8647 3.11863 42.0772 2.60726 43.5124C2.42817 43.9917 2.3616 44.5057 2.41269 45.0148C2.46377 45.5239 2.63114 46.0145 2.90188 46.4486C3.4902 47.3548 4.45354 47.8509 5.65829 47.8999C5.62756 48.149 5.61204 48.3997 5.61182 48.6506C5.61182 50.7818 6.70387 52.6996 8.43653 54.0229C6.80688 54.95 5.36681 56.1762 4.19191 57.6374ZM4.27764 60.3559C4.48351 59.9978 4.70053 59.6686 4.89036 59.3979L6.86722 61.4194C6.71279 61.9773 6.59757 62.5453 6.52241 63.1193C6.28199 63.1806 6.04844 63.2663 5.82535 63.3749C5.55407 63.363 5.2884 63.2937 5.04585 63.1716C4.80331 63.0495 4.58939 62.8774 4.41822 62.6666C4.16682 62.3394 4.0191 61.9444 3.99405 61.5324C3.96899 61.1205 4.06776 60.7105 4.27764 60.3552V60.3559ZM9.5265 68.2684C9.52941 68.5443 9.47758 68.8181 9.37401 69.0738C9.27044 69.3296 9.11719 69.5622 8.92311 69.7584C8.72904 69.9545 8.498 70.1102 8.24336 70.2165C7.98872 70.3227 7.71554 70.3774 7.43962 70.3774C7.1637 70.3774 6.89052 70.3227 6.63588 70.2165C6.38124 70.1102 6.1502 69.9545 5.95613 69.7584C5.76205 69.5622 5.6088 69.3296 5.50523 69.0738C5.40166 68.8181 5.34983 68.5443 5.35274 68.2684V66.7042C5.34983 66.4283 5.40166 66.1546 5.50523 65.8988C5.6088 65.6431 5.76205 65.4104 5.95613 65.2143C6.1502 65.0182 6.38124 64.8625 6.63588 64.7562C6.89052 64.6499 7.1637 64.5952 7.43962 64.5952C7.71554 64.5952 7.98872 64.6499 8.24336 64.7562C8.498 64.8625 8.72904 65.0182 8.92311 65.2143C9.11719 65.4104 9.27044 65.6431 9.37401 65.8988C9.47758 66.1546 9.52941 66.4283 9.5265 66.7042V68.2684ZM11.1446 67.734V66.7045C11.1432 66.5241 11.1286 66.3441 11.1009 66.1659C12.1186 66.24 13.1268 66.2781 14.1097 66.2781C15.0925 66.2781 16.1007 66.2398 17.1184 66.1656C17.0908 66.344 17.0762 66.524 17.0747 66.7045V67.7343C15.1189 68.1407 13.1003 68.1403 11.1446 67.7331V67.734ZM22.8666 68.2684C22.8666 68.8219 22.6467 69.3528 22.2553 69.7442C21.8639 70.1356 21.3331 70.3554 20.7796 70.3554C20.2261 70.3554 19.6952 70.1356 19.3039 69.7442C18.9125 69.3528 18.6926 68.8219 18.6926 68.2684V66.7042C18.6926 66.1507 18.9125 65.6199 19.3039 65.2285C19.6952 64.8371 20.2261 64.6172 20.7796 64.6172C21.3331 64.6172 21.8639 64.8371 22.2553 65.2285C22.6467 65.6199 22.8666 66.1507 22.8666 66.7042V68.2684ZM23.8002 62.6659C23.6289 62.8767 23.415 63.0487 23.1724 63.1708C22.9298 63.2928 22.6641 63.362 22.3928 63.3739C22.1697 63.2654 21.9361 63.1798 21.6958 63.1183C21.6206 62.5444 21.5053 61.9763 21.3509 61.4184L23.3283 59.397C23.5176 59.667 23.734 59.996 23.9407 60.3552C24.1504 60.7104 24.2491 61.1202 24.224 61.532C24.199 61.9437 24.0514 62.3388 23.8002 62.6659ZM19.4266 42.2156C19.5282 41.9941 19.6761 41.7968 19.8602 41.637C20.0444 41.4773 20.2605 41.3588 20.4943 41.2895C20.7377 41.2146 20.9942 41.1919 21.247 41.2228C21.4999 41.2537 21.7433 41.3375 21.9616 41.4689C22.9502 42.0594 23.7025 42.9756 24.0895 44.0603C24.1846 44.3046 24.2224 44.5675 24.2001 44.8287C24.1777 45.0899 24.0957 45.3425 23.9605 45.5671C23.5464 46.2047 22.7987 46.3267 22.1361 46.2834C21.5314 44.8686 20.5038 43.6756 19.1942 42.8678C19.2529 42.6442 19.3306 42.426 19.4266 42.2156ZM4.25882 45.5671C4.1235 45.3425 4.04151 45.0899 4.01916 44.8287C3.9968 44.5674 4.03467 44.3046 4.12987 44.0603C4.51677 42.9756 5.2691 42.0594 6.25776 41.4689C6.47613 41.3373 6.71979 41.2533 6.97283 41.2224C7.22587 41.1914 7.48259 41.2142 7.72623 41.2892C7.95995 41.3586 8.17614 41.4771 8.36028 41.6369C8.54443 41.7967 8.69227 41.994 8.79389 42.2156C8.88979 42.4255 8.96752 42.6431 9.02624 42.8662C7.71771 43.6738 6.69078 44.8662 6.08605 46.2799C5.22123 46.3383 4.60596 46.1013 4.25882 45.5671ZM7.23039 48.6506C7.23039 45.5604 10.3163 43.0454 14.1097 43.0454C17.9031 43.0454 20.9889 45.5599 20.9889 48.6506C20.9889 51.5181 18.332 53.8881 14.9187 54.2157V53.1727C15.5162 52.9983 16.065 52.6875 16.5219 52.2649C16.8177 51.9913 17.0236 51.6344 17.1123 51.2414C17.201 50.8484 17.1683 50.4377 17.0187 50.0636C16.8707 49.6795 16.6097 49.3493 16.2701 49.1167C15.9305 48.8841 15.5283 48.76 15.1167 48.7608H13.1045C12.6929 48.76 12.2907 48.8841 11.9511 49.1167C11.6115 49.3493 11.3505 49.6795 11.2025 50.0636C11.0528 50.4377 11.0202 50.8484 11.1089 51.2414C11.1976 51.6344 11.4034 51.9913 11.6992 52.2649C12.1562 52.6875 12.705 52.9983 13.3025 53.1727V54.2157C9.88711 53.8883 7.23039 51.5181 7.23039 48.6506ZM14.1113 51.6945C13.6213 51.6263 13.1635 51.4113 12.7983 51.0776C12.7401 51.0256 12.7 50.9566 12.6838 50.8803C12.6675 50.8041 12.676 50.7246 12.7079 50.6535C12.7375 50.5727 12.7913 50.5028 12.862 50.4536C12.9326 50.4043 13.0167 50.3779 13.1029 50.378H15.1151C15.2012 50.3779 15.2853 50.4043 15.3559 50.4536C15.4266 50.5028 15.4804 50.5727 15.5101 50.6535C15.5419 50.7247 15.5503 50.8041 15.5341 50.8804C15.5178 50.9567 15.4778 51.0258 15.4197 51.0778C15.0556 51.4106 14.5996 51.6258 14.1113 51.6952V51.6945ZM10.0288 54.9841C11.3095 55.5704 12.7014 55.8739 14.1099 55.8739C15.5184 55.8739 16.9103 55.5704 18.1909 54.9841C19.7442 55.7714 21.1434 56.8312 22.3222 58.113L20.6911 59.7804C20.5588 59.5512 20.4082 59.3332 20.2408 59.1284C20.1737 59.0448 20.0908 58.9753 19.9967 58.9241C19.9026 58.8728 19.7993 58.8407 19.6927 58.8297C19.5862 58.8187 19.4785 58.829 19.3759 58.8599C19.2733 58.8909 19.1779 58.9419 19.0952 59.01C19.0125 59.0781 18.9442 59.162 18.8941 59.2567C18.8441 59.3514 18.8134 59.4552 18.8038 59.5619C18.7942 59.6686 18.8058 59.7761 18.8381 59.8783C18.8704 59.9805 18.9227 60.0752 18.9919 60.157C19.2873 60.5324 19.5111 60.959 19.652 61.4154C19.6555 61.428 19.6613 61.4387 19.6652 61.4512C19.6703 61.4672 19.6738 61.4835 19.6801 61.4991C19.8551 62.0098 19.9806 62.5362 20.0551 63.0709C19.1627 63.2509 18.3677 63.7531 17.822 64.4818C16.5647 64.598 15.3167 64.6595 14.1097 64.6595C12.9026 64.6595 11.6546 64.5984 10.3974 64.4818C9.85148 63.7533 9.0567 63.2512 8.16444 63.0709C8.23888 62.5373 8.36399 62.012 8.53807 61.5021C8.5455 61.4835 8.54992 61.4644 8.55596 61.4454C8.55921 61.4352 8.56432 61.4259 8.56711 61.4154C8.70826 60.959 8.93209 60.5325 9.22746 60.157C9.36054 59.991 9.4229 59.7793 9.40103 59.5677C9.37916 59.3561 9.27483 59.1616 9.11062 59.0264C8.94641 58.8911 8.73554 58.826 8.52366 58.8451C8.31179 58.8642 8.11595 58.9659 7.97856 59.1284C7.81109 59.3332 7.6605 59.5512 7.52826 59.7804L5.89714 58.113C7.0759 56.831 8.47536 55.7712 10.0288 54.9841Z" fill="white"/>
<path d="M74.8936 37.5418C75.6177 37.5418 76.3121 37.2542 76.8241 36.7422C77.3361 36.2302 77.6237 35.5357 77.6237 34.8116C77.6237 34.0876 77.3361 33.3931 76.8241 32.8811C76.3121 32.3691 75.6177 32.0815 74.8936 32.0815H74.3926V29.0033C74.3861 23.177 72.0687 17.5912 67.9489 13.4713C63.829 9.35144 58.2433 7.03399 52.4169 7.02734H51.5393C50.691 7.02827 49.8777 7.36568 49.2778 7.96554C48.6779 8.56541 48.3405 9.37874 48.3396 10.2271V13.9522C43.4307 14.138 40.7698 15.9969 39.3887 17.5701C38.5842 18.4785 37.9865 19.5507 37.637 20.7127C36.6837 20.8735 35.8234 21.3809 35.2214 22.1374C34.6194 22.8939 34.3182 23.8461 34.3756 24.8112C34.4329 25.7763 34.8449 26.6861 35.5322 27.366C36.2196 28.0458 37.1339 28.4477 38.0995 28.4945C39.0652 28.5412 40.0141 28.2295 40.7639 27.6193C41.5137 27.009 42.0116 26.1432 42.1619 25.1882C42.3123 24.2332 42.1045 23.2563 41.5784 22.4452C41.0523 21.6341 40.2451 21.046 39.3118 20.7938C39.9147 19.1652 42.0519 15.5538 49.1487 15.5538C56.2937 15.5538 58.5255 19.1515 59.1733 20.7987C58.241 21.0553 57.4363 21.6473 56.9139 22.461C56.3914 23.2747 56.188 24.2528 56.3427 25.2073C56.4973 26.1618 56.9992 27.0256 57.7519 27.6327C58.5046 28.2397 59.455 28.5473 60.4207 28.4964C61.3863 28.4454 62.2991 28.0395 62.9838 27.3566C63.6684 26.6737 64.0766 25.7619 64.13 24.7964C64.1833 23.8309 63.8781 22.8797 63.2729 22.1255C62.6678 21.3713 61.8053 20.8672 60.8511 20.7101C60.4657 19.5408 59.8356 18.4669 59.003 17.5599C57.5775 15.9908 54.8655 14.1373 49.9577 13.9522V10.2271C49.9582 9.80775 50.125 9.40575 50.4215 9.10924C50.718 8.81274 51.12 8.64594 51.5393 8.64545H52.4169C57.8143 8.65154 62.9889 10.7983 66.8054 14.6148C70.6219 18.4314 72.7687 23.6059 72.7748 29.0033V32.0822H70.6822V29.3776C70.6822 24.446 68.7541 19.7099 65.3098 16.1804C61.8655 12.6509 57.1779 10.6078 52.2478 10.4873C52.0333 10.4822 51.8255 10.5624 51.6702 10.7105C51.5149 10.8585 51.4247 11.0622 51.4196 11.2767C51.4144 11.4912 51.4947 11.699 51.6427 11.8543C51.7908 12.0097 51.9945 12.0998 52.209 12.105C61.5031 12.3278 69.0643 20.0765 69.0643 29.3778V32.0824H30.8025C30.0785 32.0824 29.384 32.3701 28.872 32.8821C28.36 33.3941 28.0724 34.0885 28.0724 34.8126C28.0724 35.5367 28.36 36.2311 28.872 36.7431C29.384 37.2551 30.0785 37.5427 30.8025 37.5427H31.3037V59.6137H30.8025C30.0785 59.6137 29.384 59.9013 28.872 60.4133C28.36 60.9253 28.0724 61.6198 28.0724 62.3438C28.0724 63.0679 28.36 63.7624 28.872 64.2744C29.384 64.7864 30.0785 65.074 30.8025 65.074H31.3037V71.1654C31.3037 71.3799 31.389 71.5857 31.5407 71.7374C31.6924 71.8892 31.8982 71.9744 32.1128 71.9744H35.9543C36.1688 71.9744 36.3746 71.8892 36.5264 71.7374C36.6781 71.5857 36.7633 71.3799 36.7633 71.1654V68.1404C36.7644 67.3273 37.0879 66.5478 37.6629 65.9728C38.2378 65.3979 39.0173 65.0744 39.8304 65.0733H65.8653C66.6784 65.0744 67.4579 65.3979 68.0328 65.9728C68.6078 66.5478 68.9312 67.3273 68.9324 68.1404V71.1637C68.9324 71.3783 69.0176 71.584 69.1692 71.7357C69.3209 71.8875 69.5266 71.9727 69.7412 71.9728H73.5827C73.6889 71.9728 73.7941 71.9519 73.8923 71.9112C73.9904 71.8705 74.0796 71.811 74.1547 71.7358C74.2299 71.6607 74.2895 71.5715 74.3301 71.4734C74.3708 71.3752 74.3917 71.27 74.3917 71.1637V65.0724H74.8927C75.6167 65.0724 76.3112 64.7847 76.8232 64.2727C77.3352 63.7607 77.6228 63.0663 77.6228 62.3422C77.6228 61.6181 77.3352 60.9237 76.8232 60.4117C76.3112 59.8997 75.6167 59.6121 74.8927 59.6121H74.3917V37.5418H74.8936ZM40.5916 24.5742C40.5916 25.0296 40.4566 25.4748 40.2036 25.8535C39.9506 26.2322 39.591 26.5274 39.1702 26.7017C38.7495 26.876 38.2865 26.9216 37.8398 26.8328C37.3931 26.744 36.9828 26.5246 36.6607 26.2026C36.3387 25.8806 36.1194 25.4703 36.0306 25.0236C35.9417 24.5769 35.9873 24.1139 36.1616 23.6931C36.336 23.2724 36.6311 22.9128 37.0098 22.6598C37.3885 22.4068 37.8337 22.2717 38.2892 22.2718C38.8996 22.2725 39.4848 22.5153 39.9165 22.9469C40.3481 23.3785 40.5909 23.9638 40.5916 24.5742ZM62.5178 24.5742C62.5178 25.0295 62.3828 25.4746 62.1298 25.8532C61.8769 26.2318 61.5173 26.527 61.0966 26.7012C60.676 26.8755 60.2131 26.9212 59.7665 26.8324C59.3199 26.7436 58.9096 26.5244 58.5876 26.2025C58.2656 25.8805 58.0463 25.4703 57.9573 25.0238C57.8684 24.5772 57.9139 24.1143 58.0881 23.6936C58.2622 23.2729 58.5572 22.9132 58.9358 22.6602C59.3143 22.4071 59.7594 22.2719 60.2147 22.2718C60.8252 22.2723 61.4106 22.515 61.8424 22.9466C62.2742 23.3783 62.5171 23.9636 62.5178 24.5742ZM29.691 34.8121C29.6913 34.5174 29.8085 34.2348 30.0169 34.0264C30.2252 33.8179 30.5078 33.7007 30.8025 33.7003H74.8936C75.0409 33.6982 75.1872 33.7254 75.324 33.7803C75.4607 33.8352 75.5852 33.9167 75.6901 34.0202C75.7951 34.1236 75.8784 34.2469 75.9353 34.3828C75.9922 34.5188 76.0215 34.6646 76.0215 34.812C76.0215 34.9594 75.9922 35.1052 75.9353 35.2412C75.8784 35.3771 75.7951 35.5004 75.6901 35.6038C75.5852 35.7073 75.4607 35.7888 75.324 35.8437C75.1872 35.8986 75.0409 35.9258 74.8936 35.9237H30.8025C30.5078 35.9234 30.2253 35.8062 30.0169 35.5978C29.8085 35.3894 29.6913 35.1068 29.691 34.8121ZM64.9854 59.6128V37.5418H68.933V59.6128H64.9854ZM40.711 37.5418V59.6128H36.7633V37.5418H40.711ZM42.3291 37.5418H44.5527V59.6128H42.3291V37.5418ZM46.1706 37.5418H50.1185V59.6128H46.1706V37.5418ZM51.7364 37.5418H53.96V59.6128H51.7364V37.5418ZM55.5781 37.5418H59.5258V59.6128H55.5781V37.5418ZM61.1439 37.5418H63.3673V59.6128H61.1441L61.1439 37.5418ZM32.9218 37.5418H35.1452V59.6128H32.9218V37.5418ZM35.1452 68.1404V70.3547H32.9218V65.0724H36.2975C35.5547 65.9219 35.1453 67.012 35.1452 68.1404ZM72.7748 70.3547H70.5512V68.1404C70.5508 67.0123 70.1414 65.9226 69.3989 65.0733H72.7748V70.3547ZM76.0056 62.3427C76.0053 62.6375 75.888 62.9201 75.6795 63.1285C75.471 63.337 75.1884 63.4542 74.8936 63.4545H30.8025C30.5077 63.4545 30.2249 63.3374 30.0164 63.1289C29.8079 62.9203 29.6907 62.6376 29.6907 62.3427C29.6907 62.0478 29.8079 61.765 30.0164 61.5565C30.2249 61.348 30.5077 61.2309 30.8025 61.2309H74.8936C75.1884 61.2312 75.471 61.3484 75.6795 61.5568C75.888 61.7653 76.0053 62.0479 76.0056 62.3427ZM72.7748 59.6128H70.5512V37.5418H72.7748V59.6128Z" fill="white"/>
<path d="M10.7885 48.1269C11.2354 48.1269 11.5976 47.7647 11.5976 47.3178C11.5976 46.871 11.2354 46.5088 10.7885 46.5088C10.3417 46.5088 9.97949 46.871 9.97949 47.3178C9.97949 47.7647 10.3417 48.1269 10.7885 48.1269Z" fill="white"/>
<path d="M17.4306 48.1269C17.8775 48.1269 18.2397 47.7647 18.2397 47.3178C18.2397 46.871 17.8775 46.5088 17.4306 46.5088C16.9838 46.5088 16.6216 46.871 16.6216 47.3178C16.6216 47.7647 16.9838 48.1269 17.4306 48.1269Z" fill="white"/>
<path d="M46.5359 25.0293L48.1693 27.7585C48.3116 28.007 48.5304 28.2026 48.7932 28.3162C49.0761 28.432 49.3916 28.4406 49.6804 28.3403C49.9692 28.24 50.2114 28.0376 50.3616 27.7713L51.9451 24.9571C52.1738 24.5506 52.2871 24.0894 52.2727 23.6232C52.2584 23.157 52.117 22.7036 51.8637 22.312L50.2319 19.7879C50.1704 19.6926 50.0665 19.5288 49.9471 19.339C49.8628 19.2052 49.7457 19.0951 49.6069 19.0193C49.4681 18.9435 49.3123 18.9045 49.1541 18.906C48.996 18.9076 48.8409 18.9495 48.7035 19.028C48.5662 19.1064 48.4513 19.2187 48.3696 19.3541L46.5461 22.3835C46.3029 22.7815 46.1733 23.2386 46.1715 23.705C46.1697 24.1714 46.2957 24.6295 46.5359 25.0293ZM50.5052 23.1903C50.5985 23.3343 50.6507 23.5011 50.6559 23.6727C50.6611 23.8442 50.6193 24.0139 50.5349 24.1634L49.2598 26.4297L47.9242 24.1991C47.8358 24.052 47.7895 23.8835 47.7901 23.7118C47.7908 23.5402 47.8384 23.372 47.9279 23.2256L49.1889 21.1553L50.5052 23.1903Z" fill="white"/>
</svg>
