<svg width="80" height="79" viewBox="0 0 80 79" fill="none" xmlns="http://www.w3.org/2000/svg">
<path d="M73.2683 34.6397V17.6796C73.2683 16.8584 72.9421 16.0709 72.3614 15.4903C71.7808 14.9097 70.9933 14.5835 70.1722 14.5835C69.351 14.5835 68.5635 14.9097 67.9829 15.4903C67.4023 16.0709 67.0761 16.8584 67.0761 17.6796V20.4813C66.1443 19.8909 65.1798 19.2182 64.1949 18.4682C59.4706 14.8646 53.9375 12.4696 48.0768 11.4916C45.6687 11.0966 35.3281 11.0966 32.9195 11.4916C27.0584 12.4695 21.525 14.8645 16.8005 18.4682C16.0458 19.0421 15.2953 19.5777 14.5699 20.06C14.4814 20.1189 14.4053 20.1945 14.3461 20.2827C14.2869 20.3709 14.2456 20.4699 14.2246 20.5741C14.2036 20.6782 14.2033 20.7855 14.2238 20.8898C14.2443 20.994 14.2851 21.0932 14.3439 21.1817C14.4027 21.2702 14.4784 21.3463 14.5666 21.4055C14.6548 21.4647 14.7538 21.506 14.858 21.527C14.9621 21.548 15.0694 21.5483 15.1736 21.5278C15.2779 21.5073 15.3771 21.4665 15.4656 21.4077C16.2198 20.9063 16.9991 20.3507 17.7803 19.7561C22.2937 16.3122 27.5801 14.023 33.1797 13.0876C35.368 12.73 45.6264 12.7298 47.8147 13.0876C53.4145 14.0229 58.7009 16.3121 63.2144 19.7561C64.4504 20.7037 65.7397 21.5796 67.0761 22.3796V31.5648C67.0761 31.7793 67.1613 31.9851 67.313 32.1369C67.4648 32.2886 67.6705 32.3738 67.8851 32.3738C68.0997 32.3738 68.3055 32.2886 68.4572 32.1369C68.6089 31.9851 68.6942 31.7793 68.6942 31.5648V17.6796C68.6942 17.2876 68.8499 16.9117 69.1271 16.6345C69.4042 16.3573 69.7802 16.2016 70.1722 16.2016C70.5642 16.2016 70.9401 16.3573 71.2173 16.6345C71.4944 16.9117 71.6502 17.2876 71.6502 17.6796V34.0514C71.1405 33.9346 70.6193 33.8754 70.0964 33.8751H64.2676C64.7019 33.2507 64.9346 32.5084 64.9342 31.7479C64.9323 30.0284 64.2484 28.3799 63.0326 27.164C61.8168 25.9481 60.1683 25.2642 58.4488 25.2622H45.1684C44.1754 25.2633 43.2234 25.6582 42.5212 26.3604C41.8191 27.0625 41.4241 28.0145 41.4229 29.0075C41.4229 29.9292 41.6198 30.8404 42.0005 31.6798C42.3812 32.5193 42.9369 33.2677 43.6303 33.8751H36.3704C37.0638 33.2677 37.6194 32.5193 38.0001 31.6798C38.3808 30.8404 38.5777 29.9292 38.5777 29.0075C38.5766 28.0145 38.1816 27.0625 37.4794 26.3604C36.7772 25.6582 35.8252 25.2633 34.8322 25.2622H21.5511C19.8316 25.2641 18.1831 25.948 16.9672 27.1639C15.7513 28.3798 15.0674 30.0283 15.0655 31.7479C15.0651 32.5084 15.2978 33.2507 15.7321 33.8751H12.9239V17.6801C12.9168 16.8635 12.5875 16.0829 12.0076 15.508C11.4277 14.9331 10.6442 14.6105 9.82767 14.6105C9.01111 14.6105 8.22761 14.9331 7.64773 15.508C7.06784 16.0829 6.73852 16.8635 6.73145 17.6801V34.6402C5.58421 35.2256 4.62091 36.1164 3.94774 37.2145C3.27457 38.3125 2.91769 39.5751 2.91644 40.8631V66.9951C2.91644 67.2097 3.00168 67.4155 3.15341 67.5672C3.30514 67.7189 3.51092 67.8042 3.7255 67.8042H7.89391C8.09409 67.804 8.2871 67.7296 8.43569 67.5955C8.58428 67.4614 8.67793 67.2769 8.69855 67.0778C8.73154 66.7641 9.57452 59.4079 16.0423 58.0639H63.9577C70.4254 59.4079 71.2684 66.7641 71.3012 67.0767C71.3214 67.2761 71.4149 67.4609 71.5636 67.5953C71.7123 67.7297 71.9056 67.8041 72.106 67.8042H76.2751C76.3814 67.8042 76.4866 67.7832 76.5848 67.7426C76.6829 67.7019 76.7721 67.6423 76.8472 67.5672C76.9224 67.4921 76.982 67.4029 77.0226 67.3047C77.0633 67.2066 77.0842 67.1014 77.0842 66.9951V40.8631C77.0829 39.5749 76.726 38.3122 76.0526 37.214C75.3793 36.1159 74.4157 35.225 73.2683 34.6397ZM64.0469 56.4461H4.53362V52.1993H75.4663V56.4461H64.0469ZM43.0422 29.0075C43.0428 28.4435 43.2672 27.9027 43.666 27.5039C44.0648 27.1051 44.6056 26.8807 45.1696 26.8801H58.4488C59.7393 26.8815 60.9766 27.3949 61.8891 28.3075C62.8017 29.22 63.3149 30.4573 63.3164 31.7479C63.3157 32.3119 63.0913 32.8526 62.6925 33.2513C62.2937 33.6501 61.7529 33.8744 61.1889 33.8751H47.9086C46.618 33.8736 45.3808 33.3604 44.4682 32.4478C43.5557 31.5353 43.0424 30.298 43.041 29.0075H43.0422ZM16.6838 31.7479C16.6852 30.4574 17.1985 29.2201 18.111 28.3075C19.0234 27.395 20.2606 26.8816 21.5511 26.8801H34.8313C35.3953 26.8807 35.936 27.1051 36.3349 27.5039C36.7337 27.9027 36.958 28.4435 36.9587 29.0075C36.9573 30.298 36.444 31.5353 35.5315 32.4478C34.6189 33.3604 33.3817 33.8736 32.0911 33.8751H18.8112C18.2472 33.8744 17.7065 33.6501 17.3077 33.2513C16.9089 32.8526 16.6845 32.3119 16.6838 31.7479ZM8.34955 17.6796C8.35443 17.2908 8.5123 16.9195 8.78897 16.6463C9.06564 16.3731 9.43882 16.2199 9.82767 16.2199C10.2165 16.2199 10.5897 16.3731 10.8664 16.6463C11.143 16.9195 11.3009 17.2908 11.3058 17.6796V33.8746H9.90353C9.38056 33.875 8.8593 33.9341 8.34955 34.0509V17.6796ZM4.53362 40.8631C4.53528 39.4394 5.10157 38.0745 6.10826 37.0678C7.11496 36.0611 8.47985 35.4948 9.90353 35.4932H70.0964C71.5201 35.4948 72.885 36.0611 73.8917 37.0678C74.8984 38.0745 75.4647 39.4394 75.4663 40.8631V50.5815H4.53362V40.8631ZM7.20707 66.1861H4.53362V58.0651H12.0275C8.6458 60.4555 7.53004 64.5326 7.20707 66.1861ZM72.7929 66.1861C72.4699 64.5326 71.3541 60.4555 67.9725 58.0639H75.4663V66.1861H72.7929Z" fill="white"/>
</svg>
