<svg width="80" height="79" viewBox="0 0 80 79" fill="none" xmlns="http://www.w3.org/2000/svg">
<path d="M3.01657 40.9428H3.9181V73.2756C3.9181 73.3819 3.93903 73.4871 3.97969 73.5852C4.02035 73.6834 4.07995 73.7725 4.15508 73.8476C4.23021 73.9228 4.3194 73.9823 4.41756 74.023C4.51572 74.0636 4.62092 74.0845 4.72716 74.0845H8.56865C8.67488 74.0845 8.78008 74.0636 8.87824 74.023C8.9764 73.9823 9.06559 73.9228 9.14072 73.8476C9.21585 73.7725 9.27545 73.6834 9.31611 73.5852C9.35677 73.4871 9.3777 73.3819 9.3777 73.2756V49.5524H42.7394C42.954 49.5524 43.1598 49.4672 43.3115 49.3154C43.4632 49.1637 43.5485 48.9579 43.5485 48.7433C43.5485 48.5288 43.4632 48.323 43.3115 48.1713C43.1598 48.0195 42.954 47.9343 42.7394 47.9343H9.3777V40.9428H45.4082V65.9612C45.4082 66.1757 45.4934 66.3815 45.6452 66.5333C45.7969 66.685 46.0027 66.7702 46.2173 66.7702H69.9379V73.2761C69.9379 73.3823 69.9589 73.4875 69.9995 73.5857C70.0402 73.6838 70.0998 73.773 70.1749 73.8481C70.25 73.9232 70.3392 73.9828 70.4374 74.0234C70.5356 74.064 70.6408 74.085 70.747 74.0849H74.5885C74.6947 74.085 74.7999 74.064 74.8981 74.0234C74.9962 73.9828 75.0854 73.9232 75.1606 73.8481C75.2357 73.773 75.2953 73.6838 75.3359 73.5857C75.3766 73.4875 75.3975 73.3823 75.3975 73.2761V40.9428H76.9833C77.0896 40.9428 77.1948 40.9219 77.293 40.8812C77.3911 40.8405 77.4803 40.781 77.5554 40.7058C77.6306 40.6307 77.6902 40.5415 77.7308 40.4434C77.7715 40.3452 77.7924 40.24 77.7924 40.1337V35.7327C77.7924 35.6265 77.7715 35.5213 77.7308 35.4231C77.6902 35.325 77.6306 35.2358 77.5554 35.1607C77.4803 35.0855 77.3911 35.0259 77.293 34.9853C77.1948 34.9446 77.0896 34.9237 76.9833 34.9237H57.0828V34.8075C57.0828 33.5159 56.5697 32.2773 55.6564 31.364C54.7431 30.4507 53.5045 29.9376 52.2129 29.9376C50.9213 29.9376 49.6826 30.4507 48.7694 31.364C47.8561 32.2773 47.343 33.5159 47.343 34.8075V34.9237H34.772V29.4913H44.2504C45.0887 29.4901 45.8923 29.1564 46.485 28.5636C47.0776 27.9707 47.411 27.167 47.412 26.3287V8.07833C47.4111 7.23985 47.0776 6.43598 46.4847 5.84308C45.8918 5.25019 45.0879 4.91669 44.2495 4.91577H17.7405C16.9022 4.91694 16.0986 5.25054 15.5059 5.84341C14.9132 6.43628 14.5798 7.24001 14.5789 8.07833V26.3287C14.5799 27.167 14.9133 27.9707 15.506 28.5636C16.0986 29.1564 16.9022 29.4901 17.7405 29.4913H27.2205V34.9228H3.01657C2.802 34.9228 2.59621 35.008 2.44449 35.1597C2.29276 35.3115 2.20752 35.5172 2.20752 35.7318V40.1328C2.2074 40.2391 2.22823 40.3444 2.26884 40.4427C2.30944 40.541 2.36902 40.6303 2.44416 40.7055C2.5193 40.7807 2.60853 40.8404 2.70675 40.8811C2.80497 40.9218 2.91025 40.9428 3.01657 40.9428ZM7.75983 72.4666H5.53621V40.9428H7.75983V72.4666ZM69.9375 40.9428V47.9345H47.0263V40.9428H69.9375ZM47.0263 65.1519V58.1611H67.6035C67.8181 58.1611 68.0238 58.0758 68.1756 57.9241C68.3273 57.7724 68.4125 57.5666 68.4125 57.352C68.4125 57.1374 68.3273 56.9317 68.1756 56.7799C68.0238 56.6282 67.8181 56.543 67.6035 56.543H47.0263V49.5519H69.9379V65.1519H47.0263ZM73.7797 72.4664H71.556V40.9428H73.7797V72.4664ZM48.9609 34.8066C48.9812 33.9576 49.3327 33.1501 49.9404 32.5568C50.548 31.9635 51.3636 31.6314 52.2129 31.6314C53.0622 31.6314 53.8778 31.9635 54.4854 32.5568C55.0931 33.1501 55.4446 33.9576 55.4649 34.8066V34.9228H48.9609V34.8066ZM17.7405 6.53364H44.2499C44.6594 6.53414 45.052 6.69705 45.3416 6.98663C45.6311 7.27621 45.7939 7.66882 45.7944 8.07833V23.2487H16.1968V8.07833C16.1972 7.66894 16.36 7.27644 16.6494 6.98688C16.9388 6.69731 17.3312 6.53432 17.7405 6.53364ZM16.1959 26.3287V24.8668H45.7944V26.3287C45.7939 26.7382 45.631 27.1307 45.3415 27.4203C45.0519 27.7098 44.6594 27.8727 44.2499 27.8732H17.7405C17.3312 27.8725 16.9388 27.7095 16.6494 27.42C16.3601 27.1305 16.1973 26.7381 16.1968 26.3287H16.1959ZM28.8359 29.4913H33.1518V34.9228H28.8377L28.8359 29.4913ZM3.82563 36.5418H76.1743V39.3247H3.82563V36.5418Z" fill="white"/>
<path d="M25.5647 43.6292C25.3501 43.6292 25.1443 43.7144 24.9926 43.8661C24.8409 44.0178 24.7556 44.2236 24.7556 44.4382C24.7556 44.6528 24.8409 44.8586 24.9926 45.0103C25.1443 45.162 25.3501 45.2473 25.5647 45.2473H29.2217C29.4362 45.2473 29.642 45.162 29.7938 45.0103C29.9455 44.8586 30.0307 44.6528 30.0307 44.4382C30.0307 44.2236 29.9455 44.0178 29.7938 43.8661C29.642 43.7144 29.4362 43.6292 29.2217 43.6292H25.5647Z" fill="white"/>
<path d="M57.2601 45.2473H59.7035C59.9181 45.2473 60.1239 45.162 60.2756 45.0103C60.4273 44.8586 60.5126 44.6528 60.5126 44.4382C60.5126 44.2236 60.4273 44.0178 60.2756 43.8661C60.1239 43.7144 59.9181 43.6292 59.7035 43.6292H57.2601C57.0455 43.6292 56.8397 43.7144 56.688 43.8661C56.5363 44.0178 56.451 44.2236 56.451 44.4382C56.451 44.6528 56.5363 44.8586 56.688 45.0103C56.8397 45.162 57.0455 45.2473 57.2601 45.2473Z" fill="white"/>
<path d="M59.7035 52.2383H57.2601C57.0455 52.2383 56.8397 52.3235 56.688 52.4752C56.5363 52.627 56.451 52.8328 56.451 53.0473C56.451 53.2619 56.5363 53.4677 56.688 53.6194C56.8397 53.7711 57.0455 53.8564 57.2601 53.8564H59.7035C59.9181 53.8564 60.1239 53.7711 60.2756 53.6194C60.4273 53.4677 60.5126 53.2619 60.5126 53.0473C60.5126 52.8328 60.4273 52.627 60.2756 52.4752C60.1239 52.3235 59.9181 52.2383 59.7035 52.2383Z" fill="white"/>
<path d="M59.7035 60.8474H57.2601C57.0455 60.8474 56.8397 60.9327 56.688 61.0844C56.5363 61.2361 56.451 61.4419 56.451 61.6565C56.451 61.871 56.5363 62.0768 56.688 62.2286C56.8397 62.3803 57.0455 62.4655 57.2601 62.4655H59.7035C59.9181 62.4655 60.1239 62.3803 60.2756 62.2286C60.4273 62.0768 60.5126 61.871 60.5126 61.6565C60.5126 61.4419 60.4273 61.2361 60.2756 61.0844C60.1239 60.9327 59.9181 60.8474 59.7035 60.8474Z" fill="white"/>
</svg>
