<svg width="80" height="79" viewBox="0 0 80 79" fill="none" xmlns="http://www.w3.org/2000/svg">
<path d="M3.30812 57.5224H22.3734C22.588 57.5224 22.7937 57.4372 22.9455 57.2854C23.0972 57.1337 23.1824 56.9279 23.1824 56.7133C23.1824 56.4988 23.0972 56.293 22.9455 56.1413C22.7937 55.9895 22.588 55.9043 22.3734 55.9043H15.5589V35.1552H25.3826V56.7131C25.3826 56.9277 25.4679 57.1334 25.6196 57.2851C25.7713 57.4368 25.9771 57.5221 26.1916 57.5222H77.2749C77.4894 57.5221 77.6952 57.4368 77.8469 57.2851C77.9986 57.1334 78.0839 56.9277 78.0839 56.7131V26.5102C78.0839 26.2957 77.9987 26.0899 77.847 25.9382C77.6953 25.7864 77.4895 25.7012 77.2749 25.7012H55.2014V24.005C55.2005 23.2083 54.8836 22.4445 54.3203 21.8811C53.7569 21.3177 52.9931 21.0009 52.1963 21H28.3876C27.5908 21.0009 26.827 21.3178 26.2636 21.8812C25.7002 22.4446 25.3834 23.2085 25.3826 24.0053V25.7014H3.30905C3.09448 25.7014 2.88869 25.7867 2.73697 25.9384C2.58524 26.0901 2.5 26.2959 2.5 26.5105V56.7133C2.50006 56.9277 2.58519 57.1334 2.73671 57.285C2.88822 57.4367 3.09373 57.5221 3.30812 57.5224ZM13.9408 55.9043H4.11718V35.1552H13.9408V55.9043ZM53.5823 55.9043H27.0009V27.3191H53.5821L53.5823 55.9043ZM76.4658 33.5373H58.0739C57.8594 33.5373 57.6536 33.6225 57.5019 33.7743C57.3501 33.926 57.2649 34.1318 57.2649 34.3464C57.2649 34.5609 57.3501 34.7667 57.5019 34.9184C57.6536 35.0702 57.8594 35.1554 58.0739 35.1554H76.4658V55.9045H55.2004V27.3191H76.4658V33.5373ZM28.3876 22.6193H52.1954C52.5629 22.6197 52.9153 22.7658 53.1752 23.0256C53.4352 23.2855 53.5815 23.6377 53.5821 24.0053V25.7014H27.0009V24.0053C27.0015 23.6377 27.1479 23.2855 27.4078 23.0256C27.6677 22.7658 28.0201 22.6197 28.3876 22.6193ZM25.3826 27.3191V33.5373H4.11718V27.3191H25.3826Z" fill="white"/>
<path d="M31.7145 50.1284H48.8686C49.6113 50.1275 50.3234 49.8321 50.8485 49.3069C51.3737 48.7817 51.6691 48.0696 51.6699 47.3269V39.0066C51.6691 38.2639 51.3737 37.5518 50.8485 37.0267C50.3233 36.5015 49.6113 36.2061 48.8686 36.2053H31.7145C30.9718 36.2061 30.2597 36.5015 29.7346 37.0267C29.2094 37.5518 28.914 38.2639 28.9132 39.0066V47.3269C28.914 48.0696 29.2094 48.7817 29.7345 49.3069C30.2597 49.8321 30.9717 50.1275 31.7145 50.1284ZM30.5313 39.0066C30.5318 38.6929 30.6566 38.3923 30.8784 38.1705C31.1002 37.9487 31.4008 37.8239 31.7145 37.8234H48.8686C49.1822 37.8239 49.4829 37.9487 49.7047 38.1705C49.9265 38.3923 50.0513 38.6929 50.0518 39.0066V47.3269C50.0513 47.6406 49.9265 47.9413 49.7048 48.1631C49.483 48.3849 49.1823 48.5098 48.8686 48.5103H31.7145C31.4008 48.5098 31.1001 48.3849 30.8783 48.1631C30.6565 47.9413 30.5317 47.6406 30.5313 47.3269V39.0066Z" fill="white"/>
<path d="M31.3325 34.4232C31.8215 34.4238 32.2988 34.2735 32.6992 33.9928C33.0997 33.7121 33.4038 33.3147 33.57 32.8548H34.077C34.1844 32.8566 34.2911 32.837 34.3908 32.7972C34.4905 32.7574 34.5814 32.6981 34.6579 32.6228C34.7345 32.5475 34.7953 32.4577 34.8369 32.3586C34.8784 32.2596 34.8998 32.1533 34.8998 32.0459C34.8998 31.9385 34.8784 31.8321 34.8369 31.7331C34.7953 31.634 34.7345 31.5443 34.6579 31.469C34.5814 31.3937 34.4905 31.3344 34.3908 31.2945C34.2911 31.2547 34.1844 31.2351 34.077 31.2369H33.5693C33.4215 30.8273 33.1641 30.4661 32.8251 30.1927C32.4861 29.9193 32.0786 29.7442 31.6469 29.6865C31.2153 29.6288 30.776 29.6907 30.3772 29.8654C29.9783 30.0402 29.635 30.3211 29.3848 30.6775C29.1345 31.034 28.987 31.4522 28.9581 31.8868C28.9293 32.3213 29.0202 32.7554 29.2212 33.1418C29.4221 33.5282 29.7252 33.852 30.0975 34.078C30.4698 34.3039 30.897 34.4233 31.3325 34.4232ZM30.7781 31.526C30.8462 31.4529 30.9281 31.394 31.0191 31.3528C31.1101 31.3115 31.2084 31.2886 31.3083 31.2855H31.3339C31.5088 31.2856 31.6784 31.346 31.8141 31.4565C31.9497 31.567 32.0431 31.7209 32.0786 31.8922C32.114 32.0636 32.0894 32.2419 32.0087 32.3972C31.9281 32.5524 31.7964 32.6752 31.6358 32.7447C31.4753 32.8143 31.2957 32.8263 31.1272 32.7789C30.9588 32.7315 30.8119 32.6276 30.7112 32.4845C30.6104 32.3414 30.5621 32.168 30.5743 31.9935C30.5865 31.8189 30.6584 31.6537 30.7781 31.526Z" fill="white"/>
<path d="M40.2914 34.4232C40.7805 34.4238 41.2578 34.2735 41.6582 33.9928C42.0587 33.7121 42.3628 33.3147 42.529 32.8548H43.0374C43.1448 32.8566 43.2514 32.837 43.3512 32.7972C43.4509 32.7574 43.5417 32.6981 43.6183 32.6228C43.6949 32.5475 43.7557 32.4577 43.7973 32.3586C43.8388 32.2596 43.8602 32.1533 43.8602 32.0459C43.8602 31.9385 43.8388 31.8321 43.7973 31.7331C43.7557 31.634 43.6949 31.5443 43.6183 31.469C43.5417 31.3937 43.4509 31.3344 43.3512 31.2945C43.2514 31.2547 43.1448 31.2351 43.0374 31.2369H42.5283C42.3805 30.8273 42.1231 30.4661 41.7841 30.1927C41.4451 29.9193 41.0376 29.7442 40.6059 29.6865C40.1742 29.6288 39.735 29.6907 39.3361 29.8654C38.9372 30.0402 38.594 30.3211 38.3437 30.6775C38.0935 31.034 37.9459 31.4522 37.9171 31.8868C37.8882 32.3213 37.9792 32.7554 38.1802 33.1418C38.3811 33.5282 38.6842 33.852 39.0565 34.078C39.4288 34.3039 39.8559 34.4233 40.2914 34.4232ZM39.7368 31.526C39.8748 31.3789 40.0655 31.2925 40.2671 31.2859C40.4686 31.2793 40.6646 31.3529 40.8119 31.4907C40.959 31.6286 41.0454 31.8193 41.052 32.0208C41.0585 32.2224 40.9848 32.4183 40.847 32.5655C40.7082 32.7089 40.5186 32.792 40.3191 32.7969C40.1196 32.8018 39.9261 32.7281 39.7805 32.5917C39.6348 32.4553 39.5486 32.2671 39.5404 32.0677C39.5321 31.8683 39.6026 31.6737 39.7366 31.5257L39.7368 31.526Z" fill="white"/>
<path d="M49.2906 34.4232C49.7796 34.4239 50.2569 34.2736 50.6574 33.9929C51.0578 33.7122 51.3618 33.3148 51.5279 32.8548H52.0365C52.1439 32.8566 52.2506 32.837 52.3503 32.7972C52.4501 32.7574 52.5409 32.6981 52.6175 32.6228C52.694 32.5475 52.7549 32.4577 52.7964 32.3586C52.8379 32.2596 52.8593 32.1533 52.8593 32.0459C52.8593 31.9385 52.8379 31.8321 52.7964 31.7331C52.7549 31.634 52.694 31.5443 52.6175 31.469C52.5409 31.3937 52.4501 31.3344 52.3503 31.2945C52.2506 31.2547 52.1439 31.2351 52.0365 31.2369H51.5274C51.3796 30.8273 51.1222 30.4661 50.7832 30.1927C50.4442 29.9193 50.0367 29.7442 49.605 29.6865C49.1734 29.6288 48.7342 29.6907 48.3353 29.8654C47.9364 30.0402 47.5931 30.3211 47.3429 30.6775C47.0927 31.034 46.9451 31.4522 46.9162 31.8868C46.8874 32.3213 46.9784 32.7554 47.1793 33.1418C47.3802 33.5282 47.6833 33.852 48.0556 34.078C48.4279 34.3039 48.8551 34.4233 49.2906 34.4232ZM48.736 31.526C48.8739 31.3789 49.0646 31.2925 49.2662 31.2859C49.4678 31.2793 49.6637 31.3529 49.8111 31.4907C49.9208 31.5935 49.9977 31.7266 50.0318 31.8732C50.066 32.0197 50.0559 32.1731 50.0029 32.3139C49.9498 32.4547 49.8563 32.5766 49.734 32.6642C49.6117 32.7518 49.4661 32.8012 49.3157 32.8061C49.1654 32.811 49.0169 32.7712 48.8892 32.6918C48.7614 32.6123 48.6601 32.4967 48.598 32.3597C48.5359 32.2227 48.5159 32.0703 48.5404 31.9218C48.5649 31.7734 48.6329 31.6356 48.7357 31.5257L48.736 31.526Z" fill="white"/>
<path d="M50.8608 52.3401H29.7223C29.5077 52.3401 29.3019 52.4253 29.1502 52.5771C28.9984 52.7288 28.9132 52.9346 28.9132 53.1491C28.9132 53.3637 28.9984 53.5695 29.1502 53.7212C29.3019 53.873 29.5077 53.9582 29.7223 53.9582H50.8608C51.0754 53.9582 51.2812 53.873 51.4329 53.7212C51.5846 53.5695 51.6699 53.3637 51.6699 53.1491C51.6699 52.9346 51.5846 52.7288 51.4329 52.5771C51.2812 52.4253 51.0754 52.3401 50.8608 52.3401Z" fill="white"/>
<path d="M11.4437 47.2006C11.6582 47.2006 11.864 47.1154 12.0157 46.9637C12.1674 46.812 12.2527 46.6063 12.2527 46.3917V43.6567C12.2527 43.4421 12.1675 43.2364 12.0158 43.0846C11.8641 42.9329 11.6583 42.8477 11.4437 42.8477C11.2291 42.8477 11.0233 42.9329 10.8716 43.0846C10.7199 43.2364 10.6346 43.4421 10.6346 43.6567V46.3917C10.6347 46.6063 10.72 46.812 10.8717 46.9637C11.0234 47.1154 11.2292 47.2006 11.4437 47.2006Z" fill="white"/>
<path d="M17.2469 43.6567V46.3917C17.2469 46.6063 17.3322 46.8121 17.4839 46.9638C17.6356 47.1156 17.8414 47.2008 18.056 47.2008C18.2706 47.2008 18.4764 47.1156 18.6281 46.9638C18.7798 46.8121 18.8651 46.6063 18.8651 46.3917V43.6567C18.8651 43.4421 18.7798 43.2364 18.6281 43.0846C18.4764 42.9329 18.2706 42.8477 18.056 42.8477C17.8414 42.8477 17.6356 42.9329 17.4839 43.0846C17.3322 43.2364 17.2469 43.4421 17.2469 43.6567Z" fill="white"/>
<path d="M58.7912 47.6629C59.0058 47.6629 59.2116 47.5777 59.3633 47.426C59.515 47.2742 59.6003 47.0684 59.6003 46.8539V43.1943C59.6003 42.9797 59.515 42.7739 59.3633 42.6222C59.2116 42.4705 59.0058 42.3853 58.7912 42.3853C58.5767 42.3853 58.3709 42.4705 58.2191 42.6222C58.0674 42.7739 57.9822 42.9797 57.9822 43.1943V46.8539C57.9822 47.0684 58.0674 47.2742 58.2191 47.426C58.3709 47.5777 58.5767 47.6629 58.7912 47.6629Z" fill="white"/>
</svg>
