<svg width="25" height="24" viewBox="0 0 25 24" fill="none" xmlns="http://www.w3.org/2000/svg">
<path d="M14.7967 9.50003L11.0467 13.25M22.6567 0.78878C22.7753 0.747848 22.9031 0.741112 23.0253 0.769341C23.1476 0.797571 23.2595 0.859627 23.3481 0.948417C23.4368 1.03721 23.4987 1.14915 23.5267 1.27145C23.5548 1.39375 23.5478 1.52148 23.5067 1.64003L16.1017 22.8025C16.0574 22.929 15.9761 23.0393 15.8684 23.119C15.7606 23.1988 15.6314 23.2443 15.4975 23.2497C15.3635 23.2551 15.2311 23.2201 15.1173 23.1493C15.0035 23.0784 14.9136 22.9751 14.8592 22.8525L10.8355 13.8C10.7683 13.6492 10.6476 13.5285 10.4967 13.4613L1.44423 9.43628C1.3221 9.38175 1.21913 9.29185 1.14861 9.1782C1.0781 9.06454 1.04328 8.93236 1.04867 8.79871C1.05405 8.66507 1.09939 8.53611 1.17881 8.4285C1.25824 8.32088 1.36811 8.23956 1.49423 8.19503L22.6567 0.78878Z" stroke="white" stroke-width="1.5" stroke-linecap="round" stroke-linejoin="round"/>
</svg>
