<svg width="80" height="79" viewBox="0 0 80 79" fill="none" xmlns="http://www.w3.org/2000/svg">
<path d="M71.9766 32.599H66.7036C66.0936 32.599 65.4872 32.693 64.9059 32.8778C64.7913 30.7358 64.644 28.5656 64.4626 26.4096C64.2566 23.7602 63.0553 21.2869 61.1001 19.4872C59.1449 17.6875 56.5809 16.6946 53.9235 16.7084H26.3576C23.7003 16.6947 21.1363 17.6874 19.1811 19.487C17.2259 21.2866 16.0243 23.7596 15.8181 26.4089C15.697 27.8495 15.5892 29.3096 15.4977 30.7467C15.484 30.9608 15.5561 31.1716 15.6978 31.3327C15.8396 31.4937 16.0396 31.5918 16.2537 31.6055C16.4679 31.6191 16.6787 31.5471 16.8397 31.4053C17.0008 31.2635 17.0989 31.0635 17.1125 30.8494C17.2034 29.4232 17.3105 27.975 17.4306 26.5444C17.6051 24.3001 18.6226 22.2051 20.2787 20.6806C21.9348 19.156 24.1066 18.3149 26.3576 18.3263H53.9235C56.1744 18.3149 58.3463 19.156 60.0023 20.6806C61.6584 22.2052 62.6759 24.3002 62.8503 26.5444C63.0496 28.9158 63.209 31.3048 63.3268 33.6527C62.5317 34.1997 61.8815 34.9317 61.4322 35.7858C60.9829 36.6398 60.748 37.5903 60.7477 38.5554V42.4636C59.9243 41.7613 58.8774 41.3756 57.7952 41.3759H22.2055C21.1232 41.3756 20.0762 41.7613 19.2527 42.4636V38.5554C19.251 36.9762 18.6229 35.4622 17.5062 34.3455C16.3896 33.2288 14.8756 32.6007 13.2964 32.599H8.02334C6.44414 32.6008 4.93014 33.229 3.81352 34.3457C2.6969 35.4624 2.06886 36.9764 2.0672 38.5556V39.7871C2.06901 41.2262 2.59099 42.6162 3.53693 43.7008C4.48286 44.7854 5.78898 45.4914 7.21451 45.6888V58.4074C7.21562 59.4371 7.62515 60.4243 8.35326 61.1525C9.08136 61.8806 10.0686 62.2902 11.0983 62.2914H68.9019C69.9315 62.2901 70.9185 61.8805 71.6465 61.1524C72.3744 60.4243 72.7839 59.4372 72.785 58.4076V45.6891C74.2105 45.4917 75.5166 44.7856 76.4626 43.701C77.4085 42.6164 77.9305 41.2264 77.9323 39.7873V38.5558C77.9307 36.9767 77.3027 35.4626 76.1862 34.3459C75.0697 33.2292 73.5558 32.6009 71.9766 32.599ZM8.83239 58.4076V45.7444H11.2911C11.3985 45.7462 11.5052 45.7266 11.6049 45.6868C11.7047 45.6469 11.7955 45.5877 11.8721 45.5124C11.9487 45.4371 12.0095 45.3473 12.051 45.2482C12.0925 45.1492 12.1139 45.0428 12.1139 44.9354C12.1139 44.828 12.0925 44.7217 12.051 44.6227C12.0095 44.5236 11.9487 44.4338 11.8721 44.3585C11.7955 44.2832 11.7047 44.2239 11.6049 44.1841C11.5052 44.1443 11.3985 44.1247 11.2911 44.1265H8.02334C6.87315 44.1252 5.77045 43.6677 4.95715 42.8544C4.14385 42.0411 3.68636 40.9384 3.68507 39.7882V38.5568C3.68636 37.4066 4.14385 36.3039 4.95715 35.4906C5.77045 34.6773 6.87315 34.2198 8.02334 34.2185H13.2964C14.4466 34.2198 15.5493 34.6773 16.3626 35.4906C17.176 36.3039 17.6335 37.4066 17.6348 38.5568V60.6747H11.0983C10.4973 60.674 9.92122 60.4349 9.49639 60.0099C9.07157 59.5848 8.83276 59.0086 8.83239 58.4076ZM76.3149 39.7875C76.3135 40.9377 75.856 42.0404 75.0427 42.8537C74.2295 43.667 73.1268 44.1245 71.9766 44.1258H68.7088C68.6014 44.124 68.4948 44.1436 68.395 44.1834C68.2953 44.2232 68.2045 44.2825 68.1279 44.3578C68.0513 44.4331 67.9905 44.5229 67.949 44.622C67.9074 44.721 67.8861 44.8273 67.8861 44.9347C67.8861 45.0421 67.9074 45.1485 67.949 45.2475C67.9905 45.3466 68.0513 45.4364 68.1279 45.5117C68.2045 45.587 68.2953 45.6462 68.395 45.6861C68.4948 45.7259 68.6014 45.7455 68.7088 45.7437H71.1676V58.4069C71.1669 59.0076 70.928 59.5835 70.5032 60.0083C70.0785 60.4331 69.5026 60.6721 68.9019 60.6728H19.2527V53.1873H46.9085C47.0159 53.1892 47.1226 53.1696 47.2223 53.1297C47.3221 53.0899 47.4129 53.0306 47.4895 52.9553C47.566 52.88 47.6269 52.7902 47.6684 52.6912C47.7099 52.5921 47.7313 52.4858 47.7313 52.3784C47.7313 52.271 47.7099 52.1647 47.6684 52.0656C47.6269 51.9666 47.566 51.8768 47.4895 51.8015C47.4129 51.7262 47.3221 51.6669 47.2223 51.6271C47.1226 51.5872 47.0159 51.5676 46.9085 51.5695H19.2527V45.9465C19.2536 45.1637 19.565 44.4132 20.1186 43.8597C20.6721 43.3062 21.4227 42.9949 22.2055 42.994H57.7947C58.5775 42.9949 59.328 43.3063 59.8815 43.8598C60.435 44.4133 60.7463 45.1638 60.7472 45.9465V51.5695H54.7265C54.6191 51.5676 54.5125 51.5872 54.4127 51.6271C54.313 51.6669 54.2222 51.7262 54.1456 51.8015C54.069 51.8768 54.0082 51.9666 53.9667 52.0656C53.9251 52.1647 53.9037 52.271 53.9037 52.3784C53.9037 52.4858 53.9251 52.5921 53.9667 52.6912C54.0082 52.7902 54.069 52.88 54.1456 52.9553C54.2222 53.0306 54.313 53.0899 54.4127 53.1297C54.5125 53.1696 54.6191 53.1892 54.7265 53.1873H60.7472V57.9301C60.7454 58.0375 60.765 58.1442 60.8048 58.2439C60.8447 58.3437 60.904 58.4345 60.9793 58.5111C61.0546 58.5876 61.1444 58.6485 61.2434 58.69C61.3425 58.7315 61.4488 58.7529 61.5562 58.7529C61.6636 58.7529 61.7699 58.7315 61.869 58.69C61.968 58.6485 62.0578 58.5876 62.1331 58.5111C62.2084 58.4345 62.2677 58.3437 62.3075 58.2439C62.3474 58.1442 62.3669 58.0375 62.3651 57.9301V38.5556C62.3665 37.4054 62.824 36.3027 63.6373 35.4894C64.4507 34.6761 65.5534 34.2186 66.7036 34.2173H71.9766C73.1268 34.2187 74.2295 34.6762 75.0427 35.4895C75.856 36.3028 76.3135 37.4054 76.3149 38.5556V39.7875Z" fill="white"/>
<path d="M51.1399 51.5695H50.8146C50.7073 51.5676 50.6006 51.5872 50.5008 51.627C50.4011 51.6669 50.3103 51.7262 50.2337 51.8015C50.1571 51.8768 50.0963 51.9666 50.0548 52.0656C50.0133 52.1647 49.9919 52.271 49.9919 52.3784C49.9919 52.4858 50.0133 52.5921 50.0548 52.6912C50.0963 52.7902 50.1571 52.88 50.2337 52.9553C50.3103 53.0306 50.4011 53.0899 50.5008 53.1297C50.6006 53.1696 50.7073 53.1891 50.8146 53.1873H51.1399C51.2473 53.1891 51.354 53.1696 51.4537 53.1297C51.5535 53.0899 51.6443 53.0306 51.7209 52.9553C51.7975 52.88 51.8583 52.7902 51.8998 52.6912C51.9413 52.5921 51.9627 52.4858 51.9627 52.3784C51.9627 52.271 51.9413 52.1647 51.8998 52.0656C51.8583 51.9666 51.7975 51.8768 51.7209 51.8015C51.6443 51.7262 51.5535 51.6669 51.4537 51.627C51.354 51.5872 51.2473 51.5676 51.1399 51.5695Z" fill="white"/>
<path d="M25.6174 23.8163C25.5422 23.8914 25.4826 23.9806 25.4419 24.0787C25.4013 24.1769 25.3803 24.2821 25.3803 24.3883C25.3803 24.4946 25.4013 24.5998 25.4419 24.6979C25.4826 24.7961 25.5422 24.8853 25.6174 24.9604L26.9936 26.3366L25.6174 27.7128C25.5409 27.7877 25.48 27.8769 25.4383 27.9754C25.3965 28.0739 25.3747 28.1797 25.3742 28.2867C25.3736 28.3937 25.3942 28.4997 25.4349 28.5987C25.4756 28.6976 25.5355 28.7875 25.6111 28.8632C25.6868 28.9388 25.7767 28.9987 25.8756 29.0394C25.9746 29.0801 26.0806 29.1007 26.1876 29.1001C26.2946 29.0996 26.4004 29.0778 26.4989 29.036C26.5974 28.9943 26.6867 28.9334 26.7615 28.8569L28.1377 27.4807L29.5139 28.8569C29.6656 29.0087 29.8714 29.0939 30.086 29.094C30.3006 29.094 30.5064 29.0088 30.6582 28.8571C30.8099 28.7053 30.8952 28.4995 30.8952 28.285C30.8952 28.0704 30.81 27.8646 30.6583 27.7128L26.7608 23.8163C26.6091 23.6647 26.4035 23.5796 26.1891 23.5796C25.9747 23.5796 25.769 23.6647 25.6174 23.8163Z" fill="white"/>
<path d="M30.4891 25.1273L30.6576 24.9589C30.7327 24.8837 30.7922 24.7945 30.8329 24.6964C30.8735 24.5982 30.8944 24.493 30.8943 24.3868C30.8943 24.2806 30.8733 24.1754 30.8327 24.0773C30.792 23.9791 30.7324 23.89 30.6572 23.8149C30.5821 23.7398 30.4929 23.6802 30.3947 23.6396C30.2966 23.599 30.1914 23.5781 30.0852 23.5781C29.9789 23.5782 29.8738 23.5991 29.7756 23.6398C29.6775 23.6805 29.5883 23.7401 29.5132 23.8152L29.3448 23.9837C29.1931 24.1354 29.108 24.3412 29.108 24.5557C29.1081 24.7703 29.1934 24.976 29.3451 25.1277C29.4969 25.2793 29.7027 25.3645 29.9172 25.3644C30.1317 25.3644 30.3375 25.2791 30.4891 25.1273Z" fill="white"/>
<path d="M37.4797 23.8162C37.4045 23.8913 37.3449 23.9805 37.3043 24.0787C37.2636 24.1768 37.2426 24.282 37.2426 24.3883C37.2426 24.4945 37.2636 24.5997 37.3043 24.6979C37.3449 24.796 37.4045 24.8852 37.4797 24.9603L38.8559 26.3366L37.4797 27.7128C37.4032 27.7876 37.3423 27.8769 37.3006 27.9754C37.2588 28.0739 37.237 28.1797 37.2365 28.2867C37.2359 28.3936 37.2565 28.4997 37.2972 28.5986C37.3379 28.6976 37.3978 28.7875 37.4734 28.8631C37.5491 28.9388 37.639 28.9987 37.7379 29.0394C37.8369 29.08 37.9429 29.1007 38.0499 29.1001C38.1569 29.0995 38.2627 29.0777 38.3612 29.036C38.4597 28.9942 38.549 28.9334 38.6238 28.8569L40 27.4795L41.3762 28.8557C41.5285 29.0047 41.7334 29.0876 41.9465 29.0865C42.1595 29.0853 42.3635 29.0002 42.5141 28.8495C42.6648 28.6989 42.7499 28.4949 42.7511 28.2818C42.7523 28.0688 42.6693 27.8639 42.5203 27.7116L38.6238 23.8151C38.5486 23.74 38.4594 23.6805 38.3612 23.6399C38.263 23.5993 38.1577 23.5785 38.0515 23.5786C37.9452 23.5787 37.8401 23.5998 37.7419 23.6405C37.6438 23.6813 37.5547 23.741 37.4797 23.8162Z" fill="white"/>
<path d="M42.3521 25.1273L42.5206 24.9589C42.6695 24.8065 42.7523 24.6016 42.7511 24.3886C42.7498 24.1755 42.6646 23.9716 42.5139 23.821C42.3632 23.6704 42.1592 23.5853 41.9461 23.5842C41.7331 23.5832 41.5282 23.6662 41.376 23.8152L41.2078 23.9837C41.0561 24.1354 40.9709 24.3412 40.971 24.5558C40.9711 24.7703 41.0564 24.976 41.2081 25.1277C41.3599 25.2793 41.5656 25.3645 41.7802 25.3644C41.9947 25.3644 42.2004 25.2791 42.3521 25.1273Z" fill="white"/>
<path d="M49.3425 28.8557C49.4176 28.9309 49.5068 28.9905 49.6049 29.0312C49.7031 29.0718 49.8083 29.0928 49.9145 29.0928C50.0208 29.0928 50.126 29.0718 50.2241 29.0312C50.3223 28.9905 50.4115 28.9309 50.4866 28.8557L51.863 27.4795L53.2393 28.8557C53.3141 28.9322 53.4033 28.9931 53.5018 29.0348C53.6003 29.0766 53.7062 29.0984 53.8131 29.0989C53.9201 29.0995 54.0262 29.0789 54.1251 29.0382C54.2241 28.9975 54.314 28.9376 54.3896 28.862C54.4653 28.7863 54.5252 28.6964 54.5658 28.5975C54.6065 28.4985 54.6272 28.3925 54.6266 28.2855C54.626 28.1785 54.6042 28.0727 54.5625 27.9742C54.5207 27.8757 54.4598 27.7864 54.3834 27.7116L50.4866 23.8162C50.3343 23.6672 50.1294 23.5843 49.9163 23.5855C49.7033 23.5866 49.4993 23.6718 49.3487 23.8224C49.198 23.9731 49.1129 24.1771 49.1117 24.3901C49.1105 24.6031 49.1935 24.8081 49.3425 24.9603L50.7189 26.3366L49.3425 27.7128C49.1911 27.8644 49.106 28.07 49.106 28.2843C49.106 28.4985 49.1911 28.7041 49.3425 28.8557Z" fill="white"/>
<path d="M54.2151 25.1273L54.3836 24.9589C54.46 24.884 54.5209 24.7947 54.5626 24.6962C54.6043 24.5977 54.626 24.4919 54.6266 24.3849C54.6271 24.2779 54.6064 24.1719 54.5657 24.0729C54.525 23.974 54.4651 23.8841 54.3894 23.8085C54.3137 23.7329 54.2238 23.673 54.1248 23.6324C54.0258 23.5918 53.9198 23.5712 53.8128 23.5718C53.7058 23.5724 53.6 23.5943 53.5015 23.636C53.403 23.6778 53.3138 23.7387 53.239 23.8152L53.0706 23.9837C52.9941 24.0585 52.9333 24.1478 52.8916 24.2463C52.8499 24.3449 52.8281 24.4507 52.8276 24.5577C52.827 24.6646 52.8477 24.7707 52.8884 24.8696C52.9292 24.9686 52.9891 25.0584 53.0648 25.1341C53.1405 25.2097 53.2304 25.2695 53.3294 25.3102C53.4283 25.3508 53.5344 25.3714 53.6414 25.3708C53.7483 25.3701 53.8541 25.3483 53.9526 25.3065C54.0511 25.2647 54.1403 25.2038 54.2151 25.1273Z" fill="white"/>
<path d="M31.4016 32.0316C31.2499 32.1834 31.1647 32.3891 31.1647 32.6037C31.1647 32.8182 31.2499 33.024 31.4016 33.1757L32.778 34.5522L31.403 35.9282C31.2539 36.0804 31.171 36.2853 31.1721 36.4984C31.1732 36.7114 31.2583 36.9154 31.4089 37.0661C31.5595 37.2168 31.7635 37.302 31.9766 37.3032C32.1896 37.3044 32.3945 37.2215 32.5468 37.0725L33.9233 35.6963L35.2995 37.0725C35.4513 37.2242 35.6571 37.3095 35.8717 37.3094C36.0862 37.3094 36.292 37.2242 36.4437 37.0724C36.5955 36.9207 36.6807 36.7149 36.6807 36.5003C36.6806 36.2857 36.5954 36.0799 36.4436 35.9282L32.5471 32.0316C32.4719 31.9564 32.3826 31.8966 32.2843 31.8559C32.1861 31.8152 32.0807 31.7942 31.9743 31.7942C31.8679 31.7942 31.7626 31.8152 31.6643 31.8559C31.566 31.8966 31.4768 31.9564 31.4016 32.0316Z" fill="white"/>
<path d="M36.2742 33.3441L36.4427 33.1757C36.5916 33.0233 36.6745 32.8184 36.6732 32.6054C36.672 32.3923 36.5867 32.1883 36.436 32.0378C36.2853 31.8872 36.0813 31.8021 35.8682 31.801C35.6552 31.8 35.4503 31.883 35.2981 32.032L35.1296 32.2005C35.0532 32.2753 34.9924 32.3646 34.9507 32.4631C34.909 32.5617 34.8872 32.6675 34.8867 32.7745C34.8861 32.8814 34.9068 32.9875 34.9475 33.0864C34.9882 33.1854 35.0482 33.2752 35.1239 33.3509C35.1995 33.4265 35.2895 33.4863 35.3884 33.527C35.4874 33.5676 35.5935 33.5882 35.7004 33.5876C35.8074 33.5869 35.9132 33.5651 36.0117 33.5233C36.1102 33.4815 36.1994 33.4206 36.2742 33.3441Z" fill="white"/>
<path d="M43.2646 37.0724C43.3397 37.1476 43.4288 37.2071 43.527 37.2478C43.6251 37.2884 43.7303 37.3094 43.8365 37.3094C43.9427 37.3094 44.0479 37.2884 44.146 37.2478C44.2442 37.2071 44.3333 37.1476 44.4084 37.0724L45.7849 35.696L47.1613 37.0724C47.3137 37.2214 47.5186 37.3043 47.7316 37.3031C47.9447 37.3019 48.1486 37.2167 48.2993 37.066C48.4499 36.9153 48.535 36.7113 48.5361 36.4983C48.5372 36.2852 48.4542 36.0804 48.3052 35.9281L44.4084 32.0315C44.3333 31.9564 44.2441 31.8969 44.146 31.8562C44.0478 31.8156 43.9426 31.7947 43.8364 31.7947C43.7302 31.7947 43.625 31.8156 43.5268 31.8563C43.4287 31.8969 43.3395 31.9565 43.2644 32.0317C43.1893 32.1068 43.1298 32.196 43.0891 32.2941C43.0485 32.3923 43.0276 32.4975 43.0276 32.6037C43.0276 32.7099 43.0485 32.8151 43.0892 32.9132C43.1298 33.0114 43.1894 33.1005 43.2646 33.1757L44.6408 34.5519L43.2646 35.9281C43.1894 36.0032 43.1297 36.0924 43.089 36.1906C43.0484 36.2888 43.0274 36.394 43.0274 36.5003C43.0274 36.6065 43.0484 36.7118 43.089 36.81C43.1297 36.9081 43.1894 36.9973 43.2646 37.0724Z" fill="white"/>
<path d="M48.1373 33.3441L48.3055 33.1757C48.4571 33.0239 48.5423 32.8181 48.5422 32.6036C48.5422 32.3891 48.4569 32.1833 48.3051 32.0317C48.1534 31.88 47.9476 31.7949 47.7331 31.7949C47.5185 31.795 47.3128 31.8803 47.1611 32.032L46.9927 32.2005C46.9162 32.2753 46.8554 32.3646 46.8137 32.4631C46.772 32.5617 46.7502 32.6675 46.7497 32.7745C46.7492 32.8814 46.7699 32.9875 46.8106 33.0864C46.8513 33.1853 46.9112 33.2752 46.9869 33.3508C47.0626 33.4265 47.1525 33.4863 47.2515 33.527C47.3504 33.5676 47.4565 33.5882 47.5635 33.5876C47.6705 33.5869 47.7763 33.5651 47.8747 33.5233C47.9732 33.4815 48.0625 33.4206 48.1373 33.3441Z" fill="white"/>
</svg>
